<svg width="1181" height="650" viewBox="0 0 1181 650" fill="none" xmlns="http://www.w3.org/2000/svg">
<g clip-path="url(#clip0_2972_2752)">
<mask id="mask0_2972_2752" style="mask-type:alpha" maskUnits="userSpaceOnUse" x="0" y="0" width="1181" height="616">
<path d="M0 0L1181 0V616L0 616V0Z" fill="white"/>
</mask>
<g mask="url(#mask0_2972_2752)">
<path d="M1226.48 436.032C1226.59 399.333 1226.64 362.688 1226.7 325.99C1226.81 259.161 1226.91 192.279 1224.25 125.504C1222.67 85.5484 1219.95 44.8324 1204.73 7.8623C1202.5 2.37922 1199.89 -3.10387 1195.64 -7.28404C1191.35 -11.5185 1185.69 -14.07 1180.09 -16.1873C1146.37 -28.9992 1009.89 -30.0307 973.83 -30.9536C899.272 -32.7994 824.769 -34.6452 750.211 -36.4367C704.04 -37.5767 654.117 -37.631 616.757 -10.487C586.14 11.771 569.88 48.0897 548.344 79.1967C535.021 98.4146 510.712 131.096 486.947 136.253C474.222 139.022 461.007 137.773 448.009 137.773C419.296 137.773 390.582 144.125 364.587 156.231C332.774 170.998 303.244 197.273 297.534 231.854C293.401 256.61 301.939 282.559 295.305 306.772C287.745 334.459 262.403 353.188 237.605 367.629C212.807 382.069 185.725 395.478 169.736 419.311C160.111 433.643 154.237 453.241 151.79 470.233C148.908 490.157 154.564 509.374 145.536 528.701C139.391 541.839 128.46 552.045 117.258 561.219C100.236 575.172 81.7461 587.712 67.3892 604.378C53.0323 621.045 43.026 643.249 47.0503 664.855C50.2045 681.902 61.8966 696.722 76.7973 705.571C94.9065 716.375 118.889 718.98 138.847 725.766C165.766 734.941 196.383 736.027 224.553 737.167C338.049 741.781 451.653 729.838 565.148 736.787C618.008 740.044 669.018 743.736 721.062 753.67C778.544 764.691 835.699 777.014 892.909 789.392C931.14 797.698 970.023 806.33 1008.96 802.855C1047.9 799.381 1187.38 781.737 1207.5 748.296C1224.47 720.12 1225.28 685.485 1225.55 652.641C1226.04 580.492 1226.32 508.235 1226.48 436.032Z" fill="#EDEFF2"/>
<path d="M920.802 616.329H862.64V616.289H845.328V431.896H862.64V264.147H920.802V431.896H933.1V355H933V311H964V324H972V337H980V350.235H991.314V486.811H1043.73V616.34H955.918V616.306H933.1V616.289H920.802V616.329Z" fill="#D4DAE2"/>
<path d="M732.532 616.343H849.423V222.601H732.532V616.343Z" fill="#D4DAE2"/>
<path d="M591.969 309.898H508.21V635.628H591.969V309.898Z" fill="#D4DAE2"/>
<path d="M304.015 616.318H362.229V395.212H304.015V616.318Z" fill="#D4DAE2"/>
<path d="M434.1 616.342H492.314L492.314 358.367H434.1V616.342Z" fill="#D4DAE2"/>
<path d="M245.854 616.31H304.067V487.864H245.854V616.31Z" fill="#D4DAE2"/>
<path d="M391.319 616.328H508.21V422.087H391.319V616.328Z" fill="#D4DAE2"/>
<path d="M393 324V311H362L362 354H362.23V616.306H420.443V350.236H410V337H401V324H393Z" fill="#D4DAE2"/>
<path d="M861.898 154.379C862.26 152.316 859.522 148.191 856.526 148.243C855.338 148.294 854.202 148.552 853.014 148.5C849.863 148.346 848.262 145.922 847.022 143.86C845.834 141.849 843.406 139.528 840.307 140.044C835.917 140.766 833.644 146.592 828.633 142.21C825.328 139.373 825.121 135.352 821.402 132.567C818.871 130.659 814.687 129.525 811.278 130.608C806.836 132 805.131 136.383 800.379 137.156C795.11 138.033 791.34 134.011 789.635 131.123C787.569 127.617 786.846 123.853 785.09 120.295C783.489 116.995 780.234 112.56 774.397 112.663C769.49 112.766 767.269 115.86 764.893 118.335C761.742 121.532 755.182 133.083 747.848 131.69C745.007 131.123 743.561 128.854 740.978 127.875C736.846 126.225 731.525 128.493 729.046 131.33C726.567 134.166 725.533 137.569 722.744 140.25C722.021 140.92 721.143 141.591 719.955 141.9C716.029 142.983 712.31 139.683 708.126 139.425C705.234 139.27 702.496 140.611 700.843 142.313C699.19 143.963 698.261 145.974 696.969 147.778C696.608 148.294 696.194 148.81 695.575 149.171C693.715 150.15 691.132 149.325 688.86 148.913C683.229 147.933 676.876 150.511 675.275 154.379H861.898Z" fill="white"/>
<path d="M1268.96 407C1269.43 404.281 1265.83 398.842 1261.88 398.91C1260.31 398.978 1258.81 399.318 1257.25 399.25C1253.1 399.046 1250.99 395.851 1249.35 393.132C1247.79 390.48 1244.59 387.421 1240.5 388.101C1234.72 389.053 1231.72 396.735 1225.12 390.956C1220.76 387.217 1220.49 381.915 1215.59 378.243C1212.25 375.728 1206.74 374.233 1202.24 375.66C1196.39 377.496 1194.14 383.274 1187.88 384.294C1180.94 385.45 1175.97 380.147 1173.72 376.34C1171 371.717 1170.04 366.754 1167.73 362.064C1165.62 357.713 1161.33 351.866 1153.64 352.002C1147.17 352.138 1144.24 356.217 1141.11 359.48C1136.96 363.695 1128.31 378.923 1118.65 377.088C1114.9 376.34 1113 373.349 1109.59 372.057C1104.15 369.882 1097.13 372.873 1093.87 376.612C1090.6 380.351 1089.24 384.838 1085.56 388.373C1084.61 389.257 1083.45 390.14 1081.89 390.548C1076.71 391.976 1071.81 387.625 1066.3 387.285C1062.48 387.081 1058.88 388.849 1056.7 391.092C1054.52 393.268 1053.29 395.919 1051.59 398.298C1051.12 398.978 1050.57 399.658 1049.75 400.134C1047.3 401.425 1043.9 400.338 1040.9 399.794C1033.48 398.502 1025.11 401.901 1023 407H1268.96Z" fill="white"/>
<path d="M703.391 616.306H761.604V350.236H703.391V616.306Z" fill="#EDEFF2"/>
<path d="M587.041 616.315H703.417V513.341H587.041V616.315Z" fill="#EDEFF2"/>
<path d="M703.406 350.232H750.668V337.237H703.406V350.232Z" fill="#EDEFF2"/>
<path d="M703.441 337.268H742.078V324.273H703.441V337.268Z" fill="#EDEFF2"/>
<path d="M703.401 324.251H733.877V311.257H703.401V324.251Z" fill="#EDEFF2"/>
<path d="M591.938 635.594H650.151V369.524H591.938V635.594Z" fill="#D4DAE2"/>
<path d="M708.29 395.235H650.129V616.342H708.29V395.235Z" fill="#D4DAE2"/>
<path d="M573.781 369.52H621.044V356.526H573.781V369.52Z" fill="#D4DAE2"/>
<path d="M299.358 572.954H346.621V559.96H299.358V572.954Z" fill="#DFF3FD"/>
<path d="M613.447 433.184H689.946V420.19H613.447V433.184Z" fill="#EDEFF2"/>
<path d="M613.447 479.773H689.946V466.779H613.447V479.773Z" fill="#EDEFF2"/>
<path d="M613.447 526.363H689.946V513.369H613.447V526.363Z" fill="#EDEFF2"/>
<path d="M320.243 526.363H396.742V513.369H320.243V526.363Z" fill="#DFF3FD"/>
<path d="M320.243 572.953H396.742V559.959H320.243V572.953Z" fill="#DFF3FD"/>
<path d="M462.183 112.662C462.632 110.101 459.169 104.915 455.449 104.979C453.974 105.043 452.499 105.427 451.024 105.299C447.112 105.107 445.059 102.034 443.52 99.537C441.981 96.976 438.967 94.095 435.119 94.7352C429.603 95.6315 426.781 102.93 420.496 97.4882C416.391 93.9029 416.071 88.9091 411.389 85.4518C408.182 83.0829 402.987 81.6744 398.69 82.9549C393.11 84.6835 390.994 90.1895 385.094 91.1499C378.488 92.2383 373.742 87.1804 371.625 83.5951C369.06 79.2415 368.098 74.5038 365.917 70.0221C363.865 65.8606 359.825 60.3546 352.513 60.4826C346.356 60.6106 343.599 64.5161 340.584 67.5892C336.672 71.6227 328.463 86.092 319.292 84.3634C315.7 83.6591 313.904 80.8421 310.698 79.5616C305.503 77.5129 298.897 80.3299 295.754 83.8512C292.612 87.3725 291.393 91.6621 287.866 94.9913C286.968 95.8876 285.813 96.6559 284.402 97.0401C279.464 98.3846 274.846 94.223 269.587 93.9029C265.932 93.7108 262.532 95.3754 260.48 97.4882C258.364 99.601 257.209 102.034 255.606 104.339C255.157 104.979 254.644 105.619 253.874 106.067C251.565 107.284 248.295 106.259 245.473 105.747C238.482 104.531 230.465 107.732 228.477 112.598H462.183V112.662Z" fill="#EDEFF2"/>
<path d="M354.085 528.909C345.151 500.477 343.389 468.361 364.494 444.893C366.601 442.567 369.188 439.911 372.334 439.87C379.105 439.457 387.033 444.07 391.613 448.687C407.606 465.048 413.375 489.127 418.989 510.667C424.655 533.053 428.792 555.782 434.66 578.206C437.758 589.657 441.261 601.184 443.034 613.017C444.806 624.849 445.76 638.829 435.588 647.392C434.831 648.088 433.872 648.746 432.95 649.202C428.027 652.049 422.986 652.157 417.841 650.572C397.503 644.067 389.209 621.192 382.791 602.848C374.266 577.838 362.13 554.248 354.085 528.909Z" fill="#5F92C3"/>
<path d="M206.484 497.151C201.342 478.442 198.669 459.321 210.392 446.574C215.74 440.817 224.995 436.705 232.605 434.032C247.62 428.481 262.84 421.079 278.883 418.612C295.748 416.145 314.465 414.5 331.331 418.201C342.026 420.463 351.898 424.78 361.565 429.509C374.317 435.677 383.573 439.995 387.686 452.742C392.211 466.928 395.091 481.526 396.531 496.123C399.204 521.412 397.148 546.495 396.942 571.784C396.531 610.026 401.467 648.268 405.992 686.098C406.197 687.537 406.403 688.976 405.786 690.21C404.141 694.116 397.765 696.584 394.268 698.228C377.608 706.864 359.92 709.125 341.615 710.153C322.487 711.387 302.741 711.592 283.408 710.976C265.514 710.359 247.62 708.508 231.166 701.312C229.315 700.49 227.463 699.668 226.641 698.023C223.967 693.294 226.024 683.631 226.024 678.491C226.229 670.678 226.641 662.66 227.258 654.847C228.286 639.427 229.315 624.007 229.932 608.587C230.754 582.27 223.35 553.691 216.563 528.403C216.563 528.197 216.357 527.786 216.357 527.58C213.477 519.151 209.569 508.459 206.484 497.151Z" fill="#78A9D8"/>
<path d="M395.296 629.969C397.353 632.436 399.204 634.903 400.644 637.576C404.14 643.744 405.58 650.94 407.431 657.725C409.694 665.126 412.367 673.145 412.162 681.163C411.956 691.032 406.403 700.489 397.97 705.629C393.445 708.508 388.097 709.947 382.955 711.181C374.523 713.237 365.884 714.881 357.246 715.498C349.019 716.321 340.175 714.47 331.947 715.498C316.11 717.554 300.273 717.143 284.23 717.143C272.712 717.349 260.989 717.965 250.088 714.47C232.399 708.919 219.03 692.06 217.385 673.556C216.974 667.388 217.591 661.014 218.002 654.846C218.208 648.267 216.974 643.744 215.534 637.576C211.009 619.689 211.009 601.185 211.215 582.681C211.215 568.288 211.42 553.896 211.42 539.504C211.42 534.57 208.129 504.141 215.945 504.347C216.768 504.347 217.591 504.758 218.208 505.375C222.115 508.048 223.967 512.776 225.818 517.094C231.577 530.869 236.307 552.868 248.031 562.532C260.372 572.606 274.769 577.335 289.783 582.269C319.195 591.727 350.253 597.278 376.785 613.932C383.573 618.866 390.154 623.801 395.296 629.969Z" fill="#5F92C3"/>
<mask id="mask1_2972_2752" style="mask-type:alpha" maskUnits="userSpaceOnUse" x="202" y="416" width="205" height="296">
<path d="M206.484 497.152C201.342 478.442 198.668 459.321 210.392 446.574C215.739 440.817 224.995 436.705 232.605 434.032C247.62 428.481 262.84 421.08 278.883 418.612C295.748 416.145 314.465 414.5 331.33 418.201C342.026 420.463 351.898 424.78 361.565 429.509C374.317 435.677 383.572 439.995 387.686 452.742C392.211 466.928 395.09 481.526 396.53 496.124C399.204 521.412 397.147 546.496 396.942 571.784C396.53 610.026 401.466 648.268 405.991 686.098C406.197 687.537 406.403 688.977 405.786 690.21C404.14 694.117 397.764 696.584 394.268 698.229C377.608 706.864 359.92 709.125 341.614 710.153C322.486 711.387 302.741 711.593 283.407 710.976C265.514 710.359 247.62 708.509 231.165 701.313C229.314 700.49 227.463 699.668 226.64 698.023C223.967 693.294 226.023 683.631 226.023 678.491C226.229 670.678 226.64 662.66 227.257 654.847C228.286 639.427 229.314 624.007 229.931 608.587C230.754 582.27 223.35 553.692 216.562 528.403C216.562 528.197 216.357 527.786 216.357 527.58C213.477 519.151 209.569 508.46 206.484 497.152Z" fill="#78A9D8"/>
</mask>
<g mask="url(#mask1_2972_2752)">
<path d="M270.471 446.976C263.506 438.595 260.687 427.153 266.791 417.182C269.694 412.632 275.751 411.384 280.817 410.48C290.977 408.876 301.305 408.494 311.598 409.362C321.251 410.11 331.535 412.432 336.871 421.037C340.851 427.339 340.924 435.422 337.717 442.297C334.834 448.504 329.281 453.418 322.781 455.972C312.317 459.901 299.452 461.462 288.473 458.614C281.588 456.862 275.183 452.554 270.471 446.976Z" fill="#5F92C3"/>
</g>
<path d="M258.553 379.922C263.616 385.036 269.558 388.993 276.646 390.716C290.183 394.044 302.868 388.149 314.218 381.608C326.326 374.547 338.407 367.283 349.941 359.056C358.058 353.167 366.556 347.018 371.78 338.206C377.855 328.032 378.213 315.53 377.256 304.04C376.599 296.244 380.39 289.082 382.059 281.589C385.452 267.01 382.461 249.781 369.011 241.046C362.17 236.59 354.778 237.191 347.519 240.265C341.806 242.503 336.669 245.907 330.668 247.562C318.055 250.956 304.673 245.74 292.267 243.087C283.493 241.181 273.784 240.025 264.839 242.915C255.107 246.121 250.241 253.016 244.933 261.217C240.299 268.287 233.32 273.398 227.732 279.562C220.154 287.867 217.886 298.556 220.185 309.239C223.62 325.162 232.564 338.875 240.314 352.959C245.094 362.056 250.857 372.263 258.553 379.922Z" fill="#0E2B5C"/>
<path d="M278.275 379.908C279.981 381.748 282.067 383.329 284.301 384.475C290.103 387.413 297.171 387.479 303.551 385.564C309.931 383.649 315.68 380.161 320.993 376.525C335.795 366.397 353.9 353.116 362.739 337.373C368.259 327.69 372.304 316.342 367.3 305.616C363.131 296.435 354.296 289.556 343.976 288.484C343.133 288.392 342.29 288.301 341.503 288.617C340.716 288.932 340.013 289.859 339.513 290.758C335.759 296.67 332.727 303.313 328.074 308.726C323.068 314.602 317.024 318.961 310.313 322.997C299.546 329.251 287.74 333.987 277.521 341.202C270.135 346.369 269.721 358.462 271.509 366.933C272.764 371.534 275.066 376.198 278.275 379.908Z" fill="#061F33"/>
<path d="M335.908 263.029C330.407 263.786 324.969 263.495 319.503 263.002C314.037 262.508 308.691 261.375 303.169 260.474C297.879 259.748 292.385 259.051 286.976 258.965C284.271 258.921 281.566 258.878 278.889 259.039C276.212 259.199 273.535 259.36 270.914 259.927C268.293 260.495 265.904 261.239 263.599 262.593C262.433 263.169 261.526 264.124 260.387 264.903C259.48 265.858 258.342 266.637 257.667 267.767C256.085 269.853 255.606 272.409 255.562 275.113C255.315 277.845 255.272 280.549 254.617 283.337C253.962 286.124 252.436 288.617 250.651 290.73C248.865 292.844 247.08 294.957 245.729 297.218C243.057 301.944 243.23 307.731 243.143 313.139C242.983 310.463 242.591 307.611 242.838 304.879C243.085 302.147 243.536 299.387 244.83 296.719C247.447 291.586 252.177 288.238 253.107 282.922C253.586 280.365 253.629 277.661 253.876 274.929C254.124 272.197 254.547 269.234 256.276 266.713C259.791 262.079 264.985 259.082 270.634 257.891C273.459 257.295 276.136 257.134 279.044 257.149C281.721 256.989 284.63 257.004 287.335 257.047C292.773 257.337 298.442 257.803 303.76 258.732C314.073 261.258 324.765 263.523 335.908 263.029Z" fill="#7BADDD"/>
<path d="M292.502 450.174C284.831 448.738 278.102 445.098 274.853 438.073C271.919 431.836 274.143 423.851 273.858 417.249C273.601 410.851 272.705 404.333 271.43 398.075C270.21 392.224 268.759 386.197 268.966 380.151C269.101 376.604 271.019 376.963 274.111 375.293C277.379 373.391 281.046 372.886 284.918 372.354C292.457 371.318 312.138 367.989 317.748 374.067C320.41 376.814 320.942 380.684 321.65 384.322C322.47 388.775 323.837 394.19 325.492 400.189C326.264 402.781 326.452 405.66 327.223 408.252C328.051 411.251 329.666 413.935 331.076 416.646C336.46 427.113 334.22 438.005 323.102 444.722C314.817 449.389 302.907 451.857 292.502 450.174Z" fill="#F8A17A"/>
<path d="M268.938 379.947C269.074 376.4 270.991 376.759 274.084 375.089C277.352 373.187 281.019 372.682 284.891 372.15C292.43 371.114 312.111 367.785 317.721 373.863C320.383 376.61 320.915 380.48 321.623 384.118C322.442 388.571 323.81 393.987 325.465 399.985C326.236 402.577 326.425 405.457 327.196 408.048C327.912 410.233 328.831 412.389 329.954 414.518C322.983 418.174 314.713 419.934 306.921 419.137C292.59 417.579 281.022 410.453 272.146 400.259C272.034 399.444 271.894 398.426 271.578 397.639C270.387 391.992 268.935 385.966 268.938 379.947Z" fill="#E5785C"/>
<path d="M260.192 334.454C260.45 324.249 262.042 314.691 264.674 306.65C276.551 272.227 319.875 264.196 345.57 289.51C374.158 317.748 362.055 383.747 331.159 406.673C322.865 412.794 311.714 414.742 301.781 411.957C271.954 403.398 259.382 366.318 260.192 334.454Z" fill="#F8A17A"/>
<path d="M264.645 306.447C276.522 272.024 319.847 263.992 345.542 289.307C348.898 292.581 351.468 296.171 353.686 300.224C352.196 301.467 350.474 302.534 349.132 303.341C337.986 309.854 325.976 314.618 313.511 317.577C308.094 318.944 302.62 319.904 298.094 323.224C295.641 325.014 293.708 327.563 292.006 330.287C290.185 333.651 288.799 337.162 287.441 340.877C284.578 348.742 283.428 356.993 282.047 365.069C281.956 365.912 281.66 366.783 281.133 367.478C280.578 367.97 279.559 368.11 278.716 368.018C273.917 367.847 271.615 363.183 267.963 360.78C265.673 359.227 263.587 357.646 261.501 356.065C260.29 348.76 259.689 341.371 259.932 334.074C260.246 324.277 261.81 314.515 264.645 306.447Z" fill="#E5785C"/>
<path d="M287.272 329.07C285.886 332.581 284.964 336.444 284.217 340.074C282.429 348.207 282.123 356.55 282.02 364.866C281.928 365.708 282.068 366.727 281.309 367.246C280.782 367.941 279.967 368.053 279.152 368.165C274.437 368.606 271.552 364.229 267.548 362.289C263.313 360.174 259.309 358.234 255.573 355.219C245.291 346.879 247.834 333.662 248.479 321.744C248.834 315.262 248.957 308.604 250.997 302.305C253.185 295.57 257.32 289.398 262.233 284.365C276.362 269.348 297.753 261.841 318.309 263.373C328.37 264.065 339.805 268.719 347.038 276.026C353.112 282.455 345.535 290.76 340.277 294.804C330.142 302.631 318.764 308.968 306.931 313.5C301.801 315.451 296.439 317.226 292.405 321.101C290.036 323.502 288.334 326.226 287.272 329.07Z" fill="#0E2B5C"/>
<path d="M265.714 335.355C252.432 327.842 248.116 346.283 250.423 355.512C251.362 359.326 252.709 363.084 254.991 366.091C258.053 370.236 267.147 377.494 272.321 372.84C274.746 370.846 275.085 367.272 275.072 364.16C275.378 355.817 274.704 340.345 265.714 335.355Z" fill="#F8A17A"/>
<path d="M372.944 299.859C378.846 283.898 390.607 271.282 384.187 253.279C380.433 242.588 370.552 235.645 359.5 235.297C354.294 235.182 348.849 236.346 344.238 239.055C338.637 242.108 335.178 247.149 328.77 248.861C313.712 252.591 298.415 240.997 284.323 238.161C270.231 235.325 255.053 239.694 247.971 253.12C245.18 258.485 243.926 264.468 240.235 269.334C234.056 277.239 222.377 279.883 217.532 288.435C209.516 302.612 225.285 323.687 233.05 334.864" stroke="#0B2D4E" stroke-width="1.30755" stroke-miterlimit="10"/>
<path d="M164.319 556.158C161.851 564.177 159.383 572.195 156.915 580.008C152.39 595.017 147.043 621.333 160.823 633.669C165.554 637.781 172.547 639.221 178.306 636.959C185.299 634.286 189.823 627.501 193.526 621.128C216.356 582.681 234.044 541.149 245.973 498.179C250.498 482.142 262.222 440.405 236.718 436.499C228.697 435.265 220.058 437.732 213.888 442.872C211.008 445.34 208.54 448.218 206.483 451.096C192.497 470.012 184.27 492.217 177.483 514.627C172.958 528.813 168.639 542.589 164.319 556.158Z" fill="#78A9D8"/>
<path d="M883.774 525.65C865.516 532.096 843.449 531.447 826.817 520.78C810.464 510.299 795.597 502.739 775.481 503.11C757.502 503.435 742.636 513.128 725.26 515.215C711.463 516.838 697.432 510.855 687.444 501.209C677.688 491.794 671.184 477.464 675.458 464.617C677.688 457.892 682.519 452.327 685.307 445.788C691.718 430.715 674.854 421.625 679.035 405.764C682.612 392.269 697.432 382.668 697.2 368.709C697.061 358.506 689.116 350.575 686.329 341.161C683.495 331.653 684.145 320.94 689.116 312.268C692.74 305.868 698.594 300.627 705.423 297.752C711.509 295.154 718.338 295.108 723.03 289.775C731.439 280.314 734.506 270.018 746.027 263.108C755.783 257.264 768.652 256.893 779.848 257.914C804.703 260.186 828.861 273.311 842.845 294.181C847.816 301.555 851.393 309.16 851.532 317.926C851.672 327.526 851.672 337.219 857.572 345.381C862.543 352.245 870.487 356.233 878.339 359.341C886.236 362.448 894.459 364.952 901.382 369.822C908.304 374.692 913.786 382.668 912.996 391.063C912.299 398.112 907.421 404.234 906.771 411.283C905.609 424.083 917.967 433.405 925.586 443.794C936.271 458.31 938.037 478.855 929.999 494.994C920.754 513.545 903.937 517.766 886.329 524.769C885.447 525 884.61 525.325 883.774 525.65Z" fill="#0E2B5C"/>
<path d="M750.858 286.064C756.898 282.539 763.913 280.916 770.928 280.638C777.943 280.36 784.958 281.287 791.741 282.957C805.4 286.389 817.804 294.505 826.445 305.635C830.719 311.247 834.017 317.601 836.015 324.418C838.013 331.235 838.384 338.378 838.292 345.334C838.245 352.337 837.734 359.294 837.966 366.158C838.106 369.589 838.524 372.975 839.592 376.175C840.614 379.329 842.38 382.297 845.028 384.198C847.63 386.146 850.975 386.981 854.319 387.398C857.711 387.816 861.242 387.816 864.726 388.28C871.695 389.207 878.756 390.877 884.842 394.865C887.816 396.859 890.51 399.642 891.811 403.12C893.158 406.599 892.879 410.448 891.997 413.926C890.928 417.451 888.93 420.419 887.537 423.48C886.143 426.587 885.26 429.88 884.935 433.266C884.285 440.083 886.05 446.9 888.466 453.347C890.835 459.84 893.716 466.286 895.388 473.104C896.224 476.536 896.689 480.014 896.642 483.539C896.596 487.063 895.946 490.541 894.831 493.881C892.554 500.513 888.234 506.403 882.612 510.576C888.094 506.263 892.229 500.327 894.366 493.742C896.55 487.156 896.271 479.967 894.459 473.336C892.694 466.657 889.813 460.303 887.304 453.764C884.796 447.271 882.845 440.268 883.402 433.126C883.681 429.555 884.563 426.077 886.004 422.784C887.444 419.538 889.395 416.616 890.324 413.416C891.114 410.216 891.346 406.784 890.138 403.723C888.977 400.662 886.608 398.204 883.82 396.349C878.152 392.639 871.277 391.016 864.494 390.135C861.102 389.671 857.618 389.671 854.087 389.3C850.603 388.882 846.84 388.048 843.82 385.775C840.8 383.549 838.803 380.21 837.734 376.778C836.619 373.346 836.201 369.775 836.062 366.25C835.876 359.201 836.387 352.244 836.48 345.334C836.573 338.424 836.201 331.467 834.343 324.882C832.438 318.296 829.325 312.082 825.237 306.563C816.921 295.571 804.842 287.455 791.509 283.884C784.819 282.076 777.897 281.009 770.928 281.102C764.006 281.241 756.991 282.678 750.858 286.064Z" fill="#7BADDD"/>
<path d="M838.85 440.501C839.501 456.269 835.83 468.049 821.429 475.84C809.953 482.055 796.202 484.095 783.519 484.374C762.241 484.884 738.548 479.411 722.659 464.524C719.779 461.834 716.992 458.495 716.806 454.553C716.62 450.982 718.571 447.597 718.757 443.979C719.036 437.904 714.343 432.895 712.206 427.237C709.419 419.724 711.324 411.329 713.832 403.724C716.341 396.118 719.454 388.419 719.082 380.442C718.618 370.054 712.346 361.01 707.375 351.92C702.357 342.83 698.455 331.746 702.729 322.285C705.563 316.024 712.253 311.247 719.129 310.505C726.376 309.717 732.88 317.972 737.526 322.517C743.751 328.639 750.72 334.065 758.2 338.564C768.56 344.824 779.942 349.462 789.651 356.651C795.552 361.01 801.87 366.946 804.657 373.903C807.816 381.694 802.288 389.254 808.978 396.442C813.298 401.08 819.942 402.657 825.192 406.228C836.388 413.927 838.339 428.072 838.85 440.501Z" fill="#061F33"/>
<path d="M721.404 528.617C736.317 505.661 745.608 477.463 732.646 451.538C731.346 448.895 729.766 446.019 726.979 445.138C720.986 443.144 712.809 445.277 707.606 448.338C689.487 458.959 678.384 478.901 668.21 496.663C657.617 515.122 648.465 534.322 637.826 552.734C633.506 560.2 629.185 567.76 626.862 576.061C624.818 583.343 624.632 591.644 627.373 598.74C639.313 629.488 672.112 591.83 682.101 580.467C696.363 564.235 709.65 546.704 721.404 528.617Z" fill="#E6AB24"/>
<path d="M856.504 502.925C860.778 484.792 863.008 466.241 853.298 453.858C848.884 448.293 841.08 444.397 834.668 441.614C822.171 436.235 809.395 429 796.062 426.634C781.985 424.176 766.283 422.646 752.253 426.171C743.333 428.443 734.97 432.571 726.98 437.069C720.057 440.965 711.556 444.304 708.211 451.585C700.081 469.162 692.833 487.481 686.84 505.893C681.823 521.291 676.294 537.43 684.238 553.059C686.794 558.114 690.51 562.427 693.437 567.297C696.689 572.677 697.897 577.732 698.362 583.946C699.337 598.138 698.966 612.329 698.919 626.521C698.919 630.602 698.966 634.869 700.777 638.532C704.308 645.767 713.925 645.86 720.847 645.86C743.658 645.814 766.469 645.767 789.279 645.721C798.757 645.721 806.004 646.88 814.924 648.689C822.404 650.22 828.861 646.463 832.485 639.46C835.876 632.874 836.155 625.176 836.527 617.755C837.967 588.909 842.055 560.201 848.745 532.143C850.603 524.259 853.902 513.87 856.504 502.925Z" fill="#F7C03A"/>
<mask id="mask2_2972_2752" style="mask-type:alpha" maskUnits="userSpaceOnUse" x="680" y="424" width="181" height="226">
<path d="M856.504 502.925C860.778 484.792 863.008 466.241 853.298 453.858C848.884 448.293 841.08 444.397 834.668 441.614C822.171 436.235 809.395 429 796.062 426.634C781.985 424.176 766.283 422.646 752.253 426.171C743.333 428.443 734.97 432.571 726.98 437.069C720.057 440.965 711.556 444.304 708.211 451.585C700.081 469.162 692.833 487.481 686.84 505.893C681.823 521.291 676.294 537.43 684.238 553.059C686.794 558.114 690.51 562.427 693.437 567.297C696.689 572.677 697.897 577.732 698.362 583.946C699.337 598.138 698.966 612.329 698.919 626.521C698.919 630.602 698.966 634.869 700.777 638.532C704.308 645.767 713.925 645.86 720.847 645.86C743.658 645.814 766.469 645.767 789.279 645.721C798.757 645.721 806.004 646.88 814.924 648.689C822.404 650.22 828.861 646.463 832.485 639.46C835.876 632.874 836.155 625.176 836.527 617.755C837.967 588.909 842.055 560.201 848.745 532.143C850.603 524.259 853.902 513.87 856.504 502.925Z" fill="#E94270"/>
</mask>
<g mask="url(#mask2_2972_2752)">
<path d="M803.681 450.148C809.07 441.151 810.278 429.881 803.217 421.162C800.011 417.174 794.297 416.756 789.465 416.664C779.895 416.478 770.278 417.498 760.94 419.678C752.067 421.765 743.008 425.29 739.152 434.241C736.271 440.919 737.293 448.618 741.057 454.693C744.494 460.212 750.162 464.339 756.48 465.824C766.701 468.235 778.687 467.911 788.443 463.829C794.576 461.279 800.058 456.223 803.681 450.148Z" fill="#E6AB24"/>
</g>
<path d="M864.587 586.08C864.494 572.167 864.447 558.253 864.354 544.34C864.308 539.517 867.467 510.021 859.941 510.346C859.105 510.392 858.361 510.809 857.711 511.273C853.948 513.963 852.043 518.462 850.278 522.682C844.796 536.039 840.15 557.419 828.721 566.787C817.107 576.294 799.174 580.283 784.726 582.602C767.862 585.245 750.672 585.477 733.622 586.497C722.565 587.146 710.393 588.77 703.146 597.071C697.989 603.007 695.341 611.958 692.554 619.24C690.138 625.593 688.233 633.153 693.111 638.904C695.202 641.362 698.129 642.985 701.009 644.33C711.648 649.338 723.309 651.889 734.923 653.791C767.444 659.217 800.568 660.33 833.46 658.799C840.475 658.475 848.141 657.779 853.297 653.002C857.153 649.478 858.965 644.237 860.266 639.182C864.726 621.976 864.68 603.889 864.587 586.08Z" fill="#E6AB24"/>
<path d="M878.942 523.516C891.439 525.093 904.586 524.026 915.69 518.183C929.859 510.762 936.967 497.174 937.292 481.545C937.525 470.229 935.295 458.402 928.465 449.359C921.032 439.527 908.535 433.498 903.889 422.089C900.87 414.715 901.613 404.605 907.559 398.9C911.323 395.237 914.296 391.155 913.785 385.683C913.088 377.66 907.188 369.915 900.591 365.601C890.928 359.248 878.942 356.929 867.652 355.491C860.033 354.517 852.414 352.384 850.045 344.175C848.791 339.723 849.023 335.085 848.79 330.494C848.279 320.801 847.583 311.062 846.096 301.462C844.424 290.377 837.223 279.618 829.139 272.012C827.977 270.899 826.77 269.879 825.562 268.858C804.795 252.07 766.421 246.133 743.517 261.67C735.712 266.957 730.23 275.073 728.512 284.348C727.35 290.563 725.678 291.862 719.592 293.763C708.581 297.195 696.038 299.607 687.304 307.676C680.474 313.984 677.315 323.537 678.198 332.72C679.359 344.407 687.582 350.019 693.436 359.294C699.429 368.755 694.737 380.674 687.768 388.512C682.425 394.541 674.806 398.947 671.787 406.413C668.999 413.277 670.858 421.208 674.202 427.84C675.55 430.53 677.176 433.08 678.384 435.817C682.054 444.211 681.682 454.229 677.362 462.298" stroke="#0B2D4E" stroke-width="2.77673" stroke-miterlimit="10"/>
<path d="M914.297 541.65C918.106 548.514 921.916 555.424 925.633 562.334C933.205 576.386 947.235 607.645 924.75 615.343C913.414 619.239 906.957 615.436 899.477 607.181C871.184 576.015 847.026 541.14 827.885 503.667C820.777 489.707 801.869 453.394 824.819 445.092C832.067 442.449 840.429 443.098 847.212 446.715C850.325 448.385 853.066 450.611 855.714 452.976C872.299 467.724 884.099 486.785 894.599 506.078C901.103 518.044 907.746 529.823 914.297 541.65Z" fill="#F7C03A"/>
<path d="M727.227 597.606H634.346V615.769H727.227V597.606Z" fill="#7BADDD"/>
<path d="M650.266 599.362L626.849 480.221C626.247 477.078 623.471 474.813 620.277 474.813H464.457C462.189 474.813 460.246 475.923 459.043 477.586L451.869 486.09L458.256 484.703L481.349 601.997C481.95 605.139 484.727 607.404 487.92 607.404H643.741C647.906 607.357 651.099 603.475 650.266 599.362Z" fill="#7BADDD"/>
<path d="M480.747 615.769H636.567C640.779 615.769 643.972 611.933 643.139 607.774L619.722 488.632C619.12 485.489 616.343 483.225 613.15 483.225H457.33C453.118 483.225 449.925 487.061 450.758 491.22L474.175 610.362C474.777 613.458 477.554 615.769 480.747 615.769Z" fill="#0E2B5C"/>
<path d="M548.912 546.976L547.222 539.599H539.626L541.316 546.976H533.929L535.667 554.572H543.044L544.735 561.95H552.331L550.641 554.572H558.018L556.29 546.976H548.912Z" fill="#7BADDD"/>
<path d="M784.215 454.739C791.044 452.559 796.666 448.292 798.803 441.568C800.708 435.446 797.688 428.582 797.177 422.368C796.666 416.431 796.573 410.495 796.991 404.559C797.363 399.086 797.874 393.382 797.037 387.909C796.573 384.802 794.854 385.312 791.695 384.06C788.536 382.808 785.005 382.808 781.567 382.808C774.505 382.808 756.201 382.298 751.834 388.466C749.836 391.295 749.697 394.866 749.604 398.205C749.511 402.286 748.768 407.527 748.117 413.231C747.839 415.736 748.025 418.286 747.606 420.791C747.188 423.62 746.12 426.31 745.144 429C741.613 439.203 744.912 448.849 755.969 453.533C763.774 456.919 775.063 457.661 784.215 454.739Z" fill="#C77941"/>
<path d="M796.944 387.955C796.48 384.848 794.761 385.358 791.602 384.106C788.442 382.854 784.912 382.854 781.474 382.854C774.412 382.854 756.108 382.344 751.741 388.512C749.743 391.341 749.604 394.912 749.511 398.251C749.418 402.332 748.675 407.573 748.024 413.277C747.746 415.782 747.931 418.332 747.513 420.837C747.188 422.97 746.491 425.057 745.748 427.098C752.577 429.649 760.289 430.205 767.397 428.443C780.219 425.289 789.929 417.312 796.851 406.97C796.898 406.182 796.898 405.347 796.944 404.558C797.269 399.086 797.78 393.381 796.944 387.955Z" fill="#A85B24"/>
<path d="M807.166 347.839C807.12 338.471 805.819 329.566 803.403 322.146C792.95 290.238 753.136 282.4 729.117 305.264C702.358 330.772 712.578 391.804 740.778 413.277C748.304 419.028 758.571 421.022 767.723 418.564C795.412 411.144 807.352 377.149 807.166 347.839Z" fill="#C77941"/>
<path d="M801.915 348.628C814.18 341.95 817.943 358.877 815.853 367.318C814.97 370.796 813.623 374.182 811.439 377.057C808.512 380.907 800.196 387.307 795.365 383.086C793.181 381.185 792.949 377.938 792.902 375.017C792.717 367.225 793.646 353.173 801.915 348.628Z" fill="#C77941"/>
<path d="M807.258 323.491C796.294 289.914 754.343 281.612 729.07 305.728C723.495 311.062 719.453 317.879 716.759 325.485C717.316 326.366 717.967 327.248 718.71 328.082C722.194 332.071 726.979 334.714 731.765 336.94C745.841 343.433 760.986 347.236 776.225 350.065C777.34 350.297 778.455 350.483 779.616 350.714C783.797 351.549 787.978 352.57 791.649 354.703C802.009 360.778 797.549 374.181 805.121 380.071C805.818 380.581 806.515 380.952 807.212 381.184C809.999 371.167 811.347 360.593 811.254 350.483C811.161 340.604 809.767 331.236 807.258 323.491Z" fill="#A85B24"/>
<path d="M780.684 346.865C784.679 348.349 788.628 350.019 791.88 352.755C801.125 360.407 794.575 372.929 801.125 379.932C806.932 386.147 815.713 377.938 818.036 372.187C822.263 361.613 822.031 349.88 821.706 338.517C821.52 332.164 821.334 325.763 819.476 319.688C817.432 313.056 813.483 307.166 808.791 302.111C795.179 287.456 774.644 279.85 754.76 281.102C739.197 282.076 711.927 295.108 724.145 314.865C726.932 319.363 731.253 322.703 735.62 325.671C748.489 334.297 762.798 340.511 777.385 345.706C778.5 346.123 779.615 346.494 780.684 346.865Z" fill="#0E2B5C"/>
</g>
<path d="M632.08 309.898H462.708C451.035 309.898 441.53 300.411 441.53 288.757V202.697C441.53 191.043 451.035 181.556 462.708 181.556H632.08C643.754 181.556 653.258 191.043 653.258 202.697V288.757C653.258 300.359 643.702 309.898 632.08 309.898Z" fill="#59956F"/>
<path d="M625.367 343.674V284.685L579.085 309.899L625.367 343.674Z" fill="#59956F"/>
<path d="M525.52 252.887H616.327C618.858 252.887 620.976 250.824 620.976 248.246V246.338C620.976 243.812 618.858 241.698 616.327 241.698H525.52C522.989 241.698 520.871 243.812 520.871 246.338V248.246C520.871 250.824 522.989 252.887 525.52 252.887Z" fill="white"/>
<path d="M478.412 252.887H508.165C510.696 252.887 512.813 250.824 512.813 248.246V246.338C512.813 243.812 510.747 241.698 508.165 241.698H478.412C475.881 241.698 473.763 243.812 473.763 246.338V248.246C473.763 250.824 475.881 252.887 478.412 252.887Z" fill="white"/>
<path d="M584.838 214.867H508.135C505.604 214.867 503.486 216.93 503.486 219.508V221.416C503.486 223.994 505.604 226.057 508.135 226.057H584.838C587.369 226.057 589.487 223.994 589.487 221.416V219.508C589.487 216.981 587.421 214.867 584.838 214.867Z" fill="white"/>
<path d="M617.634 214.867H601.513C598.982 214.867 596.865 216.93 596.865 219.508V221.416C596.865 223.994 598.982 226.057 601.513 226.057H617.634C620.165 226.057 622.282 223.994 622.282 221.416V219.508C622.282 216.981 620.216 214.867 617.634 214.867Z" fill="white"/>
<path d="M478.434 277.552H542.742C545.274 277.552 547.391 275.49 547.391 272.912V271.004C547.391 268.426 545.274 266.363 542.742 266.363H478.434C475.903 266.363 473.785 268.426 473.785 271.004V272.912C473.785 275.49 475.903 277.552 478.434 277.552Z" fill="white"/>
<path d="M488.108 216.954V210.113H481.094V216.954H474.253V223.968H481.094V230.81H488.108V223.968H494.95V216.954H488.108Z" fill="white"/>
<path d="M294.406 507.49C292.426 510.37 289.581 513.567 288.781 516.994C287.707 521.011 289.109 525.1 290.557 528.781C291.87 531.825 293.41 534.689 295.632 537.008C297.673 539.1 301.712 541.831 304.599 540.088C307.691 538.367 310.604 534.558 312.608 531.473C313.609 529.931 314.839 528.207 316.384 527.347C317.953 526.282 319.839 526.081 321.724 525.88C326.155 525.138 330.835 524.01 334.428 521.519C338.703 518.483 343.576 510.136 340.427 505.022C340.269 504.59 339.906 504.136 339.952 503.727C339.817 503.091 340.272 502.728 340.545 502.139C342.094 499.417 341.305 495.397 338.536 494.257C339.537 492.714 339.768 490.671 339.134 488.945C338.501 487.218 336.777 485.989 334.96 485.578C337.96 484.674 341.435 485.066 344.659 485.843C348.291 486.667 351.605 488.488 355.376 488.086C361.032 487.482 358.836 483.096 355.523 481.275C352.618 479.499 348.985 478.676 345.83 477.285C343.265 476.169 340.45 475.437 337.589 475.115C333.274 474.835 329.048 475.601 325.003 476.593C321.186 477.404 317.369 478.215 314.231 480.344C310.207 482.994 307.68 487.054 305.152 491.114C301.623 496.717 297.912 502.092 294.406 507.49Z" fill="#F8A17A"/>
<path d="M230.028 542.442C213.864 551.793 197.338 560.689 181.9 570.949C179.899 572.171 178.08 573.622 176.079 574.844C174.283 576.09 172.487 577.336 170.667 578.786C163.004 584.336 155.477 590.523 152.327 600.099C149.178 609.675 151.588 623.189 160.684 630.628C166.922 635.883 175.097 636.804 181.71 635.067C187.686 633.465 192.824 630.113 197.577 626.51C203.012 622.364 208.674 618.037 214.109 613.891C236.461 597.375 259.675 582.406 282.186 566.322C288.257 562.041 293.919 557.713 299.809 553.204C304.357 549.579 308.77 545.318 309.507 538.78C310.751 527.747 300.307 510.225 288.315 510.115C281.705 509.99 276.271 514.136 271.337 517.511C265.539 521.203 259.537 524.871 253.739 528.563C245.737 533.454 237.78 537.936 230.028 542.442Z" fill="#5F92C3"/>
<path d="M803.774 590.763C805.725 590.438 807.63 590.114 809.581 589.789C819.012 588.305 828.397 586.543 837.735 584.548C856.225 580.514 874.808 577.082 893.67 575.319C895.667 575.134 897.665 574.948 899.663 574.809C908.118 574.16 916.945 573.974 924.657 578.009C932.369 582.044 938.548 591.551 936.643 600.734C935.296 607.181 930.371 612.05 924.889 614.508C919.407 616.966 913.368 617.384 907.421 617.801C888.188 619.1 869.001 620.398 849.767 621.697C840.243 622.346 830.719 622.995 821.242 623.645C812.136 624.294 802.938 625.546 793.832 625.546C789.976 625.546 785.655 624.804 782.45 622.253C777.943 618.682 775.249 611.076 774.784 605.14C774.552 602.079 775.156 598.322 777.525 596.421C778.78 595.401 780.406 595.076 781.939 594.798C789.186 593.406 796.48 591.969 803.774 590.763Z" fill="#F7C03A"/>
<path d="M782.218 619.981C777.573 620.955 773.949 624.99 769.303 626.381C766.005 627.355 762.474 626.845 759.315 625.639C756.388 624.526 753.415 623.969 750.441 622.996C748.118 622.254 744.959 620.677 742.451 621.187C735.9 622.532 729.349 627.216 723.356 630.23C722.009 630.926 720.569 631.622 719.082 631.343C717.596 631.065 716.388 629.257 717.224 628.051C715.505 629.628 713.229 632.828 710.488 631.622C709.373 631.112 708.676 629.628 709.28 628.561C708.351 629.581 707.328 630.694 706.028 631.204C704.727 631.715 703.008 631.483 702.218 630.323C701.846 629.767 701.754 629.071 701.707 628.422C701.614 626.149 702.265 623.877 703.24 621.836C707.932 611.633 718.525 604.027 727.538 597.952C729.117 596.885 730.743 595.772 732.601 595.215C734.227 594.705 735.993 594.659 737.712 594.659C748.908 594.613 760.104 596.421 770.697 599.992C772.973 600.781 775.528 600.085 777.805 599.668C779.477 599.343 781.289 599.018 782.915 599.529C784.773 600.085 786.214 601.523 787.329 603.1C789.419 605.975 790.999 609.778 790.72 613.395C790.534 616.132 790.302 619.1 787.096 619.656C785.796 619.888 784.448 619.749 783.101 619.888C782.869 619.842 782.544 619.888 782.218 619.981Z" fill="#C77941"/>
</g>
<defs>
<clipPath id="clip0_2972_2752">
<rect width="1181" height="649.724" fill="white"/>
</clipPath>
</defs>
</svg>
