<svg width="1181" height="644" viewBox="0 0 1181 644" fill="none" xmlns="http://www.w3.org/2000/svg">
<g clip-path="url(#clip0_3364_2541)">
<mask id="mask0_3364_2541" style="mask-type:alpha" maskUnits="userSpaceOnUse" x="136" y="-37" width="1162" height="702">
<path d="M231.721 290.55C210.979 319.902 195.085 359.756 206.13 396.378C217.174 433.001 252.194 455.62 267.818 490.627C276.439 510.284 276.708 532.096 276.977 553.1C277.516 580.836 272.129 577.573 290.716 601C301.761 614.733 318.463 603.725 335.434 609.111C369.376 619.882 404.935 601.804 435.106 622C484.672 655.391 545.284 667.239 604.279 663.47C634.18 661.585 978.478 655.93 1007.03 647.312C1040.44 637.08 1069.8 642.502 1103.47 632.808C1161.66 616.112 1240.86 635.199 1275.07 609.111C1297.97 569.527 1305.78 520.786 1288 477.701C1279.65 457.236 1263.49 441.618 1254.06 421.421C1241.4 393.685 1237.89 361.91 1246.51 332.558C1246.78 331.212 1247.32 330.135 1247.59 329.058C1256.48 301.591 1274.26 277.625 1281.8 249.619C1297.16 191.724 1263.49 130.328 1219.04 92.8974C1200.72 77.279 1276.42 6.18855 1254.06 -1.35135C1192.37 -21.5475 1168.59 -13.131 1106.63 -32.7886C1059.22 -47.8684 564.14 -13.469 515.651 -24.7789C478.476 -33.3959 438.069 -24.2403 406.551 -1.35133C375.033 21.5376 351.866 56.8137 341.63 96.1288C331.932 132.482 332.201 172.336 314.961 205.188C300.145 233.463 272.937 248.542 250.847 269.008C243.843 275.201 237.648 282.472 231.721 290.55Z" fill="white"/>
<path d="M376.937 178.569C377.308 176.449 374.442 172.158 371.364 172.211C370.143 172.264 368.922 172.582 367.702 172.476C364.464 172.317 362.766 169.773 361.492 167.707C360.218 165.588 357.723 163.203 354.539 163.733C349.974 164.475 347.639 170.515 342.437 166.011C339.04 163.044 338.775 158.911 334.9 156.05C332.247 154.09 327.947 152.924 324.391 153.984C319.774 155.414 318.022 159.971 313.139 160.766C307.672 161.667 303.744 157.481 301.993 154.514C299.87 150.911 299.074 146.99 297.269 143.281C295.571 139.837 292.227 135.28 286.176 135.386C281.081 135.492 278.798 138.724 276.304 141.268C273.066 144.606 266.272 156.58 258.682 155.15C255.71 154.567 254.224 152.235 251.57 151.176C247.271 149.48 241.804 151.812 239.203 154.726C236.603 157.64 235.594 161.19 232.675 163.945C231.932 164.687 230.976 165.323 229.809 165.641C225.722 166.753 221.9 163.309 217.548 163.044C214.523 162.885 211.71 164.263 210.011 166.011C208.26 167.76 207.304 169.773 205.977 171.681C205.606 172.211 205.181 172.74 204.544 173.111C202.634 174.118 199.927 173.27 197.591 172.846C191.806 171.84 185.171 174.489 183.526 178.516H376.937V178.569Z" fill="white"/>
<path d="M236.829 115.582C237.009 114.479 235.55 112.25 233.954 112.286C233.321 112.286 232.699 112.466 232.067 112.434C230.381 112.355 229.507 111.039 228.857 109.954C228.206 108.868 226.912 107.624 225.262 107.901C222.894 108.297 221.7 111.42 219.012 109.077C217.251 107.542 217.118 105.396 215.123 103.908C213.757 102.887 211.528 102.28 209.695 102.83C207.301 103.566 206.41 105.942 203.858 106.356C201.033 106.812 199.002 104.663 198.107 103.121C197.029 101.241 196.605 99.2065 195.667 97.2943C194.8 95.5223 193.057 93.15 189.916 93.2003C187.274 93.2434 186.109 94.9184 184.812 96.2447C183.126 97.9736 179.618 104.177 175.686 103.433C174.154 103.142 173.389 101.927 172.005 101.381C169.78 100.504 166.944 101.708 165.603 103.225C164.263 104.742 163.734 106.571 162.221 108.005C161.808 108.42 161.298 108.725 160.737 108.893C158.623 109.472 156.653 107.693 154.389 107.56C153.667 107.534 152.946 107.658 152.274 107.922C151.601 108.187 150.99 108.587 150.478 109.098C149.58 109.993 149.091 111.053 148.401 112.035C148.213 112.338 147.954 112.591 147.646 112.772C146.654 113.304 145.256 112.854 144.052 112.642C141.043 112.128 137.629 113.508 136.78 115.582H236.829Z" fill="white"/>
</mask>
<g mask="url(#mask0_3364_2541)">
<path d="M128 6.10352e-05L1234 6.10352e-05V557.813L128 557.813V6.10352e-05Z" fill="white"/>
</g>
<path d="M669.867 617.555C669.867 615.462 668.171 613.766 666.078 613.766H618.605C616.512 613.766 614.816 615.462 614.816 617.555V617.555C614.816 619.648 616.512 621.344 618.605 621.344H666.078C668.171 621.344 669.867 619.648 669.867 617.555V617.555Z" fill="#EDEFF2"/>
<path d="M325.318 573.492C325.318 571.4 323.622 569.703 321.529 569.703H275.659C273.567 569.703 271.87 571.4 271.87 573.492V573.492C271.87 575.585 273.567 577.282 275.659 577.282H321.529C323.622 577.282 325.318 575.585 325.318 573.492V573.492Z" fill="#EDEFF2"/>
<path d="M430.159 583.032C430.159 580.939 428.462 579.243 426.37 579.243H352.208C350.115 579.243 348.419 580.939 348.419 583.032V583.032C348.419 585.125 350.115 586.821 352.208 586.821H426.37C428.462 586.821 430.159 585.125 430.159 583.032V583.032Z" fill="#EDEFF2"/>
<path d="M1027.86 389.681C1028.19 387.671 1025.54 383.628 1022.64 383.691C1021.48 383.719 1020.36 384.018 1019.21 383.96C1016.14 383.811 1014.55 381.421 1013.37 379.445C1012.18 377.469 1009.84 375.213 1006.85 375.715C1002.54 376.438 1000.38 382.115 995.484 377.854C992.284 375.064 992.043 371.16 988.419 368.457C985.927 366.601 981.884 365.498 978.549 366.529C974.212 367.869 972.573 372.187 967.947 372.939C962.814 373.768 959.123 369.864 957.484 367.045C955.494 363.628 954.756 359.932 953.05 356.442C951.475 353.223 948.303 348.91 942.621 349.001C937.802 349.083 935.701 352.124 933.34 354.539C930.275 357.676 923.899 368.953 916.752 367.594C913.966 367.064 912.573 364.847 910.058 363.859C906.014 362.264 900.863 364.457 898.424 367.233C895.985 370.009 895.022 373.315 892.27 375.907C891.521 376.663 890.595 377.22 889.576 377.527C885.72 378.577 882.149 375.344 878.034 375.117C876.72 375.071 875.412 375.295 874.189 375.776C872.966 376.256 871.855 376.984 870.925 377.912C869.292 379.541 868.4 381.464 867.152 383.252C866.81 383.802 866.338 384.261 865.778 384.587C863.971 385.551 861.441 384.741 859.219 384.36C853.754 383.397 847.542 385.927 846 389.7L1027.86 389.681Z" fill="#EDEFF2"/>
<path d="M300.86 568.85C300.898 567.515 301.236 560.657 301.588 560.657H296.233C295.974 562.07 295.891 563.509 295.988 564.942C296.05 566.349 296.224 567.727 296.224 569.149C297.766 569.02 299.313 568.97 300.86 569V568.85Z" fill="#F4A49B"/>
<path d="M312.628 571.944C312.874 571.944 312.431 569.833 312.392 569.66C312.268 568.989 311.985 568.358 311.565 567.82C311.146 567.282 310.603 566.854 309.982 566.571C308.837 566.147 307.616 565.963 306.397 566.031C303.023 566.06 299.742 566.73 296.44 567.293C296.191 567.308 295.953 567.4 295.759 567.556C295.564 567.713 295.424 567.926 295.356 568.166C295.073 569.404 294.991 570.68 295.115 571.944C295.125 572.079 309.129 571.987 312.628 571.944Z" fill="#0A2D4E"/>
<path d="M304.152 540.166C304.224 539.448 304.301 538.72 304.383 538.016C304.566 536.315 304.769 534.619 304.865 532.913C305.014 530.652 305.019 528.392 305.024 526.127C305.024 521.038 305.024 515.944 304.879 510.86C304.725 506.305 304.855 501.26 303.723 496.836C303.217 494.869 301.795 492.195 299.728 491.501C299.054 491.321 298.356 491.255 297.66 491.303L291.781 491.414C290.595 491.414 289.303 491.496 288.407 492.277C286.359 494.079 288.619 499.833 289.101 502.045C289.79 505.202 289.492 508.638 290.311 511.684C291.193 514.985 292.72 518.026 293.385 521.419C294.831 528.917 294.547 536.585 294.388 544.18C294.354 545.799 294.923 563.939 294.923 563.939L302.528 563.573C302.528 563.573 302.605 561.207 302.634 560.358C302.677 558.84 302.778 557.322 302.865 555.809C303.183 550.588 303.612 545.374 304.152 540.166Z" fill="#6094C6"/>
<path d="M280.214 568.065C280.252 566.739 280.59 559.954 280.937 559.954H275.635C275.382 561.352 275.301 562.776 275.394 564.195C275.457 565.587 275.626 566.951 275.631 568.363C277.156 568.232 278.688 568.182 280.219 568.214L280.214 568.065Z" fill="#F4A49B"/>
<path d="M284.508 541.26C284.836 537.009 285.197 532.763 285.862 528.556C286.749 522.995 288.248 517.472 289.814 512.079C290.421 510.162 290.892 508.203 291.221 506.219C291.409 504.87 291.462 503.506 291.515 502.147C291.583 500.33 291.655 498.513 291.723 496.701C291.809 494.455 291.891 492.166 291.241 490.017C290.07 486.161 287.183 484.86 283.39 485.27C276.744 485.992 276.768 493.549 276.185 498.542C275.528 504.273 275.19 510.036 275.173 515.804C275.173 518.696 275.226 521.578 275.332 524.45C275.477 527.968 274.696 531.091 274.2 534.571C273.89 537.219 273.781 539.887 273.872 542.551C273.935 549.713 274.074 564.031 274.074 564.031L282.127 564.185C282.474 559.597 283.327 555.057 283.766 550.474C284.06 547.404 284.272 544.33 284.508 541.26Z" fill="#6094C6"/>
<path d="M291.935 571.944C292.181 571.944 291.737 569.833 291.699 569.66C291.575 568.989 291.292 568.358 290.872 567.82C290.453 567.282 289.91 566.854 289.289 566.571C288.144 566.147 286.923 565.963 285.704 566.031C282.33 566.06 279.048 566.73 275.747 567.293C275.498 567.308 275.26 567.4 275.066 567.556C274.871 567.713 274.73 567.926 274.663 568.166C274.379 569.404 274.298 570.68 274.422 571.944C274.431 572.079 288.451 571.987 291.935 571.944Z" fill="#0A2D4E"/>
<path d="M291.004 453.284C290.991 453.373 290.956 453.457 290.903 453.53C290.83 453.605 290.733 453.653 290.628 453.665C288.513 454.108 286.373 453.747 284.305 453.308C285.115 449.804 286.141 446.373 287.023 442.898C287.041 442.763 287.103 442.637 287.202 442.542C287.29 442.475 287.399 442.441 287.51 442.445C288.25 442.467 288.955 442.768 289.481 443.289C289.901 443.654 290.3 444.041 290.676 444.45C291.169 444.918 291.593 445.453 291.934 446.041C292.575 447.255 292.05 448.45 291.785 449.722C291.52 450.995 291.274 452.098 291.004 453.284Z" fill="#F4A49B"/>
<path d="M303.52 495.602C298.874 495.894 294.216 496.079 289.544 496.156C288.542 496.156 276.561 496.185 276.561 496.055C276.561 491.602 276.778 487.163 276.696 482.71C276.604 477.891 276.354 473.106 276.084 468.306C275.939 466.166 275.916 464.019 276.016 461.877C276.118 460.065 276.055 458.103 276.98 456.474C278.874 453.159 283.689 451.477 287.298 451.703C289.51 451.838 291.636 452.575 293.727 453.308C295.819 454.041 297.838 454.947 299.149 456.763C301.318 459.775 302.122 463.64 302.566 467.26C303.077 471.472 303.318 475.713 303.414 479.954C303.453 481.881 303.467 483.771 303.477 485.679C303.477 486.445 303.477 487.207 303.477 487.973C303.499 490.511 303.514 493.054 303.52 495.602Z" fill="#387D52"/>
<path d="M309.501 491.298L291.269 491.987L294.079 459.149H315.457L309.501 491.298Z" fill="#EDEFF2"/>
<path d="M313.554 480.402C313.58 481.242 313.538 482.084 313.429 482.917C313.383 483.349 313.226 483.761 312.972 484.112C312.719 484.464 312.378 484.743 311.983 484.922C311.581 485.064 311.163 485.153 310.739 485.187C310.156 485.308 309.551 485.253 309 485.028C307.525 484.281 307.106 483.004 307.274 481.414C307.288 480.857 307.473 480.319 307.804 479.872C308.812 478.754 310.339 478.677 311.722 478.691C311.763 478.695 311.803 478.695 311.843 478.691L312.127 477.433C312.59 477.689 312.989 478.047 313.294 478.479C313.501 478.991 313.598 479.541 313.578 480.093L313.554 480.402Z" fill="#F4A49B"/>
<path d="M280.682 463.935C279.838 467.188 278.836 470.397 277.92 473.626C277.834 473.925 277.236 476.87 277.14 476.884L278.07 476.73C279.437 476.514 280.792 476.222 282.127 475.858C283.954 475.347 285.771 474.773 287.636 474.412C288.142 474.266 288.676 474.254 289.188 474.378C289.494 474.487 289.76 474.685 289.952 474.947C290.144 475.209 290.252 475.523 290.262 475.848C290.246 476.165 290.159 476.474 290.007 476.752C289.855 477.031 289.643 477.272 289.385 477.458C288.867 477.823 288.297 478.108 287.694 478.306L278.099 481.959C276.34 482.624 274.556 483.303 272.682 483.491C269.593 483.805 270.214 479.12 270.436 477.226C271.14 471.255 272.195 465.284 274.253 459.621C274.725 458.251 275.477 456.994 276.46 455.93C277.424 454.966 279.159 454.118 280.455 454.966C282.152 456.05 281.925 458.552 281.568 460.238C281.303 461.458 281.005 462.701 280.682 463.935Z" fill="#F4A49B"/>
<path d="M296.238 472.725C296.603 472.653 296.958 472.541 297.299 472.392C297.739 472.148 298.208 471.962 298.696 471.838C298.94 471.78 299.197 471.805 299.426 471.908C299.655 472.01 299.844 472.186 299.963 472.407C300.021 472.573 300.05 472.747 300.05 472.922C300.129 473.726 300.097 474.537 299.954 475.332C299.88 475.729 299.726 476.107 299.502 476.442C299.277 476.778 298.987 477.064 298.648 477.284C298.404 477.417 298.145 477.521 297.877 477.592C296.842 477.897 295.763 478.021 294.686 477.959C293.597 477.896 292.648 477.477 291.592 477.322C291.424 477.322 288.927 477.573 288.976 477.722C288.725 476.884 288.807 475.906 288.436 475.106L288.07 474.32C288.548 474.129 288.998 473.874 289.409 473.563C289.937 472.971 290.513 472.423 291.13 471.925C291.77 471.532 292.459 471.224 293.178 471.009C293.124 471.465 293.103 471.924 293.115 472.383C294.094 472.824 295.187 472.944 296.238 472.725V472.725Z" fill="#F4A49B"/>
<path d="M297.476 451.501C296.919 451.907 296.299 452.22 295.64 452.426C295.147 452.586 294.624 452.632 294.111 452.563C293.597 452.494 293.105 452.31 292.672 452.026C291.731 451.417 290.834 450.742 289.987 450.007C288.247 448.267 287.096 445.636 286.431 443.308C285.573 440.417 285.505 437.091 287.317 434.576C288.812 432.643 290.974 431.337 293.38 430.913C295.514 430.464 297.73 430.582 299.804 431.255C299.978 431.313 300.151 431.376 300.325 431.443C301.962 432.036 303.356 433.155 304.291 434.624C304.884 435.816 305.09 437.164 304.879 438.479C304.667 440.407 304.594 442.084 303.105 443.564C302.846 443.777 302.632 444.039 302.474 444.335C302.4 444.574 302.36 444.822 302.354 445.072C302.137 447.289 300.426 449.038 298.734 450.489C298.329 450.85 297.915 451.197 297.476 451.501Z" fill="#F4A49B"/>
<path d="M296.354 435.438H296.243C295.668 435.432 295.094 435.488 294.532 435.607C293.569 435.901 292.673 436.383 291.896 437.024C291.232 437.455 290.622 437.965 290.079 438.542C289.992 437.771 289.833 436.884 289.149 436.523C288.833 436.39 288.483 436.366 288.152 436.453C287.82 436.54 287.527 436.734 287.318 437.004C286.899 437.561 286.668 438.236 286.657 438.932C286.63 440.032 286.67 441.133 286.778 442.229C286.889 443.327 286.733 444.436 286.325 445.462C285.91 444.772 285.426 444.126 284.879 443.535C282.469 440.301 283.366 435.236 285.154 431.968C286.296 429.867 287.925 427.766 290.219 426.874C290.97 426.589 291.744 426.365 292.532 426.204C294.486 425.827 296.502 425.94 298.402 426.532C302.031 427.588 306.113 429.983 306.633 434.041C306.717 434.567 306.704 435.104 306.595 435.626C306.325 436.763 305.872 437.983 304.85 438.725C304.775 438.031 304.428 437.396 303.886 436.956C303.308 436.535 302.653 436.229 301.959 436.055C300.131 435.574 298.242 435.366 296.354 435.438V435.438Z" fill="#D43670"/>
<path d="M284.638 431.038C288.291 433.448 295.424 429.891 294.894 425.371C294.479 421.824 289.771 419.915 286.701 420.715C282.364 421.843 280.735 427.428 284.098 430.6C284.265 430.761 284.446 430.908 284.638 431.038Z" fill="#D43670"/>
<path d="M772.773 374.233L794.407 372.464C820.306 338.324 840.373 300.782 854.118 286.228C849.718 287.394 800.041 302.194 769.819 315.736L768.528 331.452L763.67 318.614C760.528 320.156 757.704 321.664 755.308 323.12C721.005 343.963 681.964 379.794 685.959 423.982C687.636 442.536 707.646 438.739 720.325 434.642C746.022 426.324 768.778 404.69 788.417 380.156L772.773 374.233Z" fill="#387D52"/>
<path d="M815.862 319.92C811.226 320.402 807.187 320.686 804.667 320.58L804.72 319.337C814.32 319.737 847.876 314.171 848.214 314.113L848.421 315.342C847.394 315.51 829.178 318.532 815.862 319.92Z" fill="#59956F"/>
<path d="M685.376 447.322L684.306 446.681C702.619 416.098 727.337 385.997 757.776 357.221C783.915 332.512 814.045 312.329 843.187 292.811C847.501 289.92 851.963 286.937 856.349 283.973L857.043 285.009C852.657 287.968 848.195 290.956 843.882 293.847C814.783 313.337 784.696 333.491 758.629 358.127C728.277 386.826 703.626 416.835 685.376 447.322Z" fill="#59956F"/>
<path d="M781.756 337.809L780.513 337.732C781.573 321.192 789.554 289.317 789.636 288.999L790.845 289.303C790.763 289.621 782.807 321.385 781.756 337.809Z" fill="#59956F"/>
<path d="M749.915 365.144C749.886 364.869 746.826 337.674 749.708 309.375L750.947 309.501C748.079 337.669 751.125 364.729 751.154 364.999L749.915 365.144Z" fill="#59956F"/>
<path d="M826.383 357.105C808.137 359.004 774.85 356.378 762.219 354.479L762.407 353.245C776.816 355.414 818.228 358.546 833.038 354.754L833.346 355.958C831.055 356.506 828.728 356.889 826.383 357.105V357.105Z" fill="#59956F"/>
<path d="M782.701 397.245C766.797 398.898 748.927 396.932 724.701 392.99L724.898 391.756C756.123 396.836 776.715 398.633 796.093 393.578L796.412 394.783C791.911 395.952 787.327 396.775 782.701 397.245V397.245Z" fill="#59956F"/>
<path d="M717.534 400.276C717.158 397.236 716.725 394.079 716.262 390.734C713.693 372.011 710.479 348.701 715.5 330.214L716.7 330.537C711.761 348.783 714.941 371.954 717.501 390.566C717.982 393.915 718.392 397.076 718.773 400.122L717.534 400.276Z" fill="#59956F"/>
<path d="M721.13 384.913C711.934 389.843 697.216 398.084 686.734 392.387C683.361 390.57 680.908 387.491 678.773 384.329C673.285 376.206 669.45 367.081 667.486 357.477C666.894 354.585 666.484 351.515 667.361 348.691C668.238 345.867 670.734 343.342 673.698 343.327C676.662 343.313 679.144 344.705 680.754 341.192C683.645 334.898 681.342 326.474 681.322 319.857C681.322 315.038 682.286 305.4 688.171 303.954C692.185 302.99 695.881 308.209 699.828 306.209C701.231 305.496 701.963 303.896 702.272 302.354C704.142 292.98 701.751 278.547 710.407 272.074C712.243 270.701 714.744 269.988 716.874 270.841C719.105 271.732 720.469 274.098 722.657 275.086C725.26 276.257 728.44 275.139 730.489 273.159C732.537 271.178 733.746 268.498 734.946 265.93C737.93 259.472 741.342 252.98 746.754 248.368C755.481 240.932 770.975 240.72 771.004 255.438C771.004 261.168 766.754 265.93 762.546 269.824C758.657 273.424 746.532 284.016 755.987 287.988C757.799 288.749 759.804 289.13 761.414 290.253C764.667 292.518 765.332 297.332 763.78 300.975C762.228 304.619 758.961 307.241 755.539 309.255C752.117 311.269 748.421 312.792 745.192 315.086C742.783 316.787 740.522 319.766 741.819 322.402C743.144 325.144 747.12 325.106 749.53 326.966C752.252 329.062 752.421 333.313 750.85 336.368C749.279 339.424 746.407 341.563 743.621 343.597L735.366 349.636C732.416 351.795 729.101 354.734 729.698 358.339C730.05 360.537 731.79 362.195 732.811 364.195C734.835 368.113 733.867 373.077 731.366 376.725C728.864 380.373 725.033 382.831 721.13 384.913Z" fill="#59956F"/>
<path d="M681.762 412.556L680.643 412.18C686.133 395.795 692.065 379.294 698.287 363.164C702.282 352.797 707.087 342.821 711.733 333.178C713.66 329.173 715.655 325.038 717.578 320.894C720.272 315.111 723.053 309.116 726.007 303.313C738.706 278.369 755.299 255.304 771.347 233L772.311 233.689C756.287 255.959 739.718 278.99 727.063 303.848C724.118 309.631 721.342 315.612 718.653 321.395C716.725 325.54 714.73 329.684 712.798 333.689C708.162 343.327 703.366 353.27 699.39 363.568C693.174 379.703 687.246 396.171 681.762 412.556Z" fill="#387D52"/>
<path d="M704.417 350.118L704.195 349.684C695.978 333.52 685.675 299.785 684.851 286.373L686.027 286.301C686.836 299.472 696.899 332.469 705.024 348.71C710.537 347.048 762.422 331.048 774.904 314.32L775.867 315.024C762.518 332.922 707.256 349.294 704.913 349.983L704.417 350.118Z" fill="#387D52"/>
<path d="M720.918 315.033L720.773 314.339C720.682 313.91 711.617 270.874 713.332 250.98L714.503 251.082C712.927 269.395 720.624 307.775 721.781 313.404C727.39 311.086 767.164 294.489 777.92 285.563L778.672 286.469C767.014 296.147 723.424 314.007 721.573 314.763L720.918 315.033Z" fill="#387D52"/>
<path d="M694.933 378.498C693.94 378.532 693.376 378.542 693.337 378.542H693.12L692.952 378.407C677.747 365.775 670.547 349.226 665 334.706L666.104 334.286C671.583 348.614 678.677 364.932 693.573 377.356C696.528 377.298 728.879 376.392 748.311 365.79L748.879 366.826C730.817 376.653 701.998 378.248 694.933 378.498Z" fill="#387D52"/>
<path d="M858.535 557.823H700.974C687.875 557.823 677.249 549.558 677.249 539.356V534.623C677.249 524.421 687.875 516.156 700.974 516.156H858.535V521.838H711.929C706.888 521.838 702.801 525.018 702.801 528.941V545.038C702.801 548.961 706.888 552.141 711.929 552.141H858.535V557.823Z" fill="#E94270"/>
<path d="M876.81 557.823H719.22C706.117 557.823 695.495 549.558 695.495 539.356V534.623C695.495 524.421 706.097 516.156 719.22 516.156H876.81V521.838H719.22C710.15 521.838 702.796 527.563 702.796 534.623V539.356C702.796 546.416 710.15 552.141 719.22 552.141H876.81V557.823Z" fill="#D43670"/>
<path d="M872.526 552.141H717.499C713.482 552.14 709.629 550.543 706.789 547.702C703.948 544.86 702.352 541.007 702.352 536.989C702.354 532.97 703.951 529.117 706.793 526.275C709.636 523.434 713.49 521.838 717.509 521.838H872.535L872.526 552.141Z" fill="#EDEFF2"/>
<path d="M710.863 534.898C722.648 534.577 734.434 534.354 746.222 534.228C758.005 534.093 769.793 534.055 781.581 534.035C793.369 534.016 805.152 534.088 816.94 534.228C828.728 534.368 840.511 534.566 852.299 534.898C840.511 535.219 828.725 535.444 816.94 535.573C805.152 535.708 793.369 535.746 781.581 535.761C769.793 535.775 758.005 535.708 746.222 535.568C734.439 535.428 722.646 535.231 710.863 534.898Z" fill="#DDD9D8"/>
<path d="M729.871 544.285C741.659 543.964 753.445 543.741 765.23 543.615C777.018 543.481 788.806 543.442 800.594 543.423C812.382 543.403 824.165 543.476 835.952 543.615C847.74 543.755 859.524 543.953 871.312 544.285C859.524 544.607 847.737 544.832 835.952 544.96C824.165 545.095 812.377 545.134 800.594 545.148C788.81 545.162 777.018 545.095 765.23 544.955C753.442 544.815 741.659 544.603 729.871 544.285Z" fill="#DDD9D8"/>
<g opacity="0.1">
<path opacity="0.1" d="M703.798 530.257C707.76 523.095 713.403 521.838 717.504 521.838H872.834V531.365" fill="#231F20"/>
</g>
<path d="M868.954 488.252H704.092C699.738 488.247 695.563 486.515 692.484 483.436C689.405 480.357 687.673 476.182 687.668 471.828V451.143C687.672 446.788 689.403 442.613 692.482 439.532C695.562 436.452 699.737 434.72 704.092 434.715H868.954V442.016H704.092C701.674 442.025 699.358 442.989 697.649 444.699C695.94 446.409 694.977 448.726 694.969 451.143V471.833C694.978 474.249 695.942 476.565 697.651 478.274C699.36 479.983 701.675 480.947 704.092 480.956H868.954V488.252Z" fill="#59956F"/>
<path d="M864.694 480.951H703.639C701.219 480.951 698.898 479.99 697.187 478.279C695.475 476.568 694.513 474.248 694.511 471.828V451.144C694.511 448.723 695.473 446.401 697.185 444.689C698.897 442.978 701.218 442.016 703.639 442.016H864.694V480.951Z" fill="#EDEFF2"/>
<g opacity="0.1">
<path opacity="0.1" d="M694.511 451.144C694.511 448.723 695.473 446.401 697.185 444.689C698.897 442.978 701.218 442.016 703.639 442.016H864.694V451.544" fill="#231F20"/>
</g>
<path d="M717.022 458.951C728.804 458.565 740.59 458.308 752.381 458.18C764.169 458.021 775.952 457.977 787.74 457.958C799.528 457.939 811.311 458.016 823.099 458.175C834.887 458.334 846.675 458.565 858.458 458.951C846.674 459.336 834.887 459.595 823.099 459.727C811.311 459.886 799.528 459.929 787.74 459.948C775.952 459.968 764.169 459.886 752.381 459.727C740.594 459.568 728.806 459.336 717.022 458.951Z" fill="#DDD9D8"/>
<path d="M704.247 467.332C716.035 466.946 727.821 466.688 739.606 466.556C751.394 466.397 763.177 466.358 774.965 466.339C786.752 466.32 798.54 466.397 810.324 466.556C822.107 466.715 833.899 466.946 845.682 467.332C833.901 467.717 822.115 467.976 810.324 468.108C798.54 468.267 786.752 468.31 774.965 468.325C763.177 468.339 751.394 468.267 739.606 468.108C727.818 467.949 716.035 467.717 704.247 467.332Z" fill="#DDD9D8"/>
<path d="M881.654 488.252H682.117V516.387H881.654V488.252Z" fill="#6094C6"/>
<path d="M671.385 146.427H411.395C401.015 146.427 392.6 154.841 392.6 165.222V552.927C392.6 563.307 401.015 571.722 411.395 571.722H671.385C681.765 571.722 690.18 563.307 690.18 552.927V165.222C690.18 154.841 681.765 146.427 671.385 146.427Z" fill="#005793"/>
<path d="M662.356 159.285H420.424C412.972 159.285 406.93 165.327 406.93 172.779V543.887C406.93 551.339 412.972 557.381 420.424 557.381H662.356C669.809 557.381 675.85 551.339 675.85 543.887V172.779C675.85 165.327 669.809 159.285 662.356 159.285Z" fill="white"/>
<path d="M558.662 128.581C558.586 124.051 556.733 119.731 553.503 116.554C550.272 113.377 545.923 111.597 541.392 111.597C536.861 111.597 532.511 113.377 529.281 116.554C526.05 119.731 524.198 124.051 524.122 128.581H485.471C484.464 128.581 483.467 128.78 482.536 129.166C481.606 129.552 480.761 130.117 480.05 130.831C479.338 131.544 478.775 132.39 478.391 133.321C478.007 134.253 477.811 135.251 477.814 136.258V167.766H604.989V136.258C604.989 134.227 604.182 132.279 602.746 130.843C601.31 129.407 599.362 128.6 597.331 128.6L558.662 128.581ZM541.375 136.398C539.829 136.398 538.317 135.939 537.032 135.08C535.747 134.221 534.745 133.001 534.153 131.572C533.561 130.144 533.407 128.572 533.708 127.056C534.01 125.539 534.754 124.147 535.847 123.053C536.941 121.96 538.334 121.216 539.85 120.914C541.366 120.613 542.938 120.767 544.366 121.359C545.795 121.951 547.015 122.953 547.874 124.238C548.733 125.523 549.192 127.035 549.192 128.581C549.192 130.654 548.368 132.642 546.902 134.108C545.436 135.574 543.448 136.398 541.375 136.398V136.398Z" fill="#FFC73C"/>
<path d="M604.956 157.954H477.804V167.747H604.956V157.954Z" fill="#E6AF3A"/>
<path d="M484.026 245.656H445.154C443.046 245.653 441.025 244.814 439.534 243.324C438.044 241.833 437.205 239.812 437.202 237.704V198.836C437.205 196.728 438.044 194.707 439.534 193.216C441.025 191.726 443.046 190.887 445.154 190.885H484.026C486.135 190.887 488.156 191.726 489.646 193.216C491.137 194.707 491.976 196.728 491.978 198.836V237.709C491.974 239.816 491.135 241.836 489.645 243.325C488.154 244.815 486.134 245.653 484.026 245.656V245.656ZM445.154 193.289C443.685 193.291 442.276 193.875 441.237 194.914C440.198 195.953 439.613 197.362 439.612 198.832V237.704C439.613 239.173 440.198 240.582 441.237 241.621C442.276 242.66 443.685 243.245 445.154 243.246H484.026C485.496 243.245 486.905 242.66 487.944 241.621C488.983 240.582 489.567 239.173 489.569 237.704V198.836C489.567 197.367 488.983 195.958 487.944 194.919C486.905 193.88 485.496 193.295 484.026 193.294L445.154 193.289Z" fill="#D0D6DE"/>
<path d="M609.735 207.008H525.369C524.675 207.008 524.01 206.732 523.519 206.241C523.028 205.751 522.752 205.085 522.752 204.391C522.752 203.696 523.028 203.03 523.519 202.539C524.009 202.047 524.675 201.771 525.369 201.769H609.735C610.43 201.771 611.096 202.047 611.588 202.539C612.079 203.03 612.356 203.696 612.357 204.391C612.356 205.085 612.079 205.751 611.587 206.242C611.096 206.732 610.43 207.008 609.735 207.008Z" fill="#D0D6DE"/>
<path d="M515.682 202.856V199.865H512.616V202.856H509.626V205.921H512.616V208.912H515.682V205.921H518.673V202.856H515.682Z" fill="#D0D6DE"/>
<path d="M515.682 275.333V272.343H512.616V275.333H509.626V278.399H512.616V281.389H515.682V278.399H518.673V275.333H515.682Z" fill="#D0D6DE"/>
<path d="M515.682 347.901V344.91H512.616V347.901H509.626V350.966H512.616V353.957H515.682V350.966H518.673V347.901H515.682Z" fill="#D0D6DE"/>
<path d="M515.682 420.21V417.219H512.616V420.21H509.626V423.276H512.616V426.266H515.682V423.276H518.673V420.21H515.682Z" fill="#D0D6DE"/>
<path d="M515.682 492.684V489.694H512.616V492.684H509.626V495.75H512.616V498.741H515.682V495.75H518.673V492.684H515.682Z" fill="#D0D6DE"/>
<path d="M653.486 220.696H512.233C511.539 220.695 510.873 220.418 510.382 219.927C509.892 219.435 509.616 218.769 509.616 218.075C509.616 217.381 509.892 216.715 510.383 216.224C510.873 215.734 511.539 215.458 512.233 215.458H653.486C654.18 215.458 654.845 215.734 655.336 216.224C655.827 216.715 656.103 217.381 656.103 218.075C656.103 218.769 655.827 219.435 655.337 219.927C654.846 220.418 654.18 220.695 653.486 220.696V220.696Z" fill="#D0D6DE"/>
<path d="M636.098 234.38H512.243C511.549 234.38 510.883 234.104 510.392 233.613C509.902 233.123 509.626 232.457 509.626 231.763V231.763C509.626 231.069 509.902 230.403 510.392 229.912C510.883 229.422 511.549 229.146 512.243 229.146H636.098C636.792 229.146 637.458 229.422 637.948 229.912C638.439 230.403 638.715 231.069 638.715 231.763C638.715 232.457 638.439 233.123 637.948 233.613C637.458 234.104 636.792 234.38 636.098 234.38Z" fill="#D0D6DE"/>
<path d="M441.265 213.13L455.665 232.889C457.014 234.745 459.559 235.395 461.342 233.622L487.848 207.28C491.154 203.993 486.04 198.88 482.739 202.166L456.233 228.508L461.91 229.241L447.51 209.482C446.349 207.896 444.383 207.154 442.566 208.186C441 209.077 440.122 211.559 441.269 213.13H441.265Z" fill="#59956F"/>
<path d="M484.026 318.113H445.154C443.046 318.11 441.025 317.272 439.534 315.781C438.044 314.29 437.205 312.269 437.202 310.161V271.289C437.205 269.181 438.044 267.16 439.534 265.669C441.025 264.178 443.046 263.34 445.154 263.337H484.026C486.135 263.34 488.156 264.178 489.646 265.669C491.137 267.16 491.976 269.181 491.978 271.289V310.161C491.976 312.269 491.137 314.29 489.646 315.781C488.156 317.272 486.135 318.11 484.026 318.113V318.113ZM445.154 265.747C443.685 265.748 442.276 266.332 441.237 267.371C440.198 268.41 439.613 269.819 439.612 271.289V310.161C439.613 311.631 440.198 313.039 441.237 314.079C442.276 315.118 443.685 315.702 445.154 315.703H484.026C485.496 315.702 486.905 315.118 487.944 314.079C488.983 313.039 489.567 311.631 489.569 310.161V271.289C489.567 269.819 488.983 268.41 487.944 267.371C486.905 266.332 485.496 265.748 484.026 265.747H445.154Z" fill="#D0D6DE"/>
<path d="M629.735 279.485H525.369C524.675 279.484 524.009 279.207 523.519 278.716C523.028 278.224 522.752 277.558 522.752 276.863V276.863C522.752 276.169 523.028 275.504 523.519 275.013C524.01 274.522 524.675 274.247 525.369 274.247H629.735C630.43 274.247 631.096 274.522 631.587 275.013C632.079 275.503 632.356 276.169 632.357 276.863C632.356 277.558 632.079 278.224 631.588 278.716C631.096 279.207 630.43 279.484 629.735 279.485Z" fill="#D0D6DE"/>
<path d="M653.486 293.144H512.233C511.539 293.144 510.873 292.869 510.383 292.378C509.892 291.887 509.616 291.222 509.616 290.528V290.528C509.616 289.833 509.892 289.168 510.383 288.677C510.873 288.186 511.539 287.911 512.233 287.911H653.486C654.18 287.911 654.845 288.186 655.336 288.677C655.827 289.168 656.103 289.833 656.103 290.528V290.528C656.103 291.222 655.827 291.887 655.336 292.378C654.845 292.869 654.18 293.144 653.486 293.144Z" fill="#D0D6DE"/>
<path d="M636.098 306.832H512.243C511.549 306.832 510.883 306.557 510.392 306.066C509.902 305.575 509.626 304.909 509.626 304.215V304.215C509.626 303.521 509.902 302.856 510.392 302.365C510.883 301.874 511.549 301.599 512.243 301.599H636.098C636.792 301.599 637.458 301.874 637.948 302.365C638.439 302.856 638.715 303.521 638.715 304.215C638.715 304.909 638.439 305.575 637.948 306.066C637.458 306.557 636.792 306.832 636.098 306.832Z" fill="#D0D6DE"/>
<path d="M441.265 285.925L455.665 305.684C457.014 307.539 459.559 308.19 461.342 306.417L487.848 280.07C491.154 276.788 486.041 271.674 482.739 274.961L456.233 301.303L461.906 302.041L447.506 282.282C446.344 280.691 444.378 279.949 442.561 280.985C440.995 281.877 440.118 284.359 441.265 285.93V285.925Z" fill="#59956F"/>
<path d="M629.735 351.91H525.369C524.675 351.91 524.01 351.634 523.519 351.143C523.028 350.652 522.752 349.987 522.752 349.293V349.293C522.752 348.599 523.028 347.933 523.519 347.442C524.01 346.952 524.675 346.676 525.369 346.676H629.735C630.43 346.676 631.096 346.951 631.587 347.442C632.079 347.933 632.356 348.598 632.357 349.293C632.356 349.987 632.079 350.653 631.587 351.143C631.096 351.634 630.43 351.91 629.735 351.91Z" fill="#D0D6DE"/>
<path d="M650.383 365.597H512.177C511.498 365.597 510.846 365.322 510.366 364.831C509.886 364.34 509.616 363.675 509.616 362.981V362.981C509.616 362.286 509.886 361.62 510.366 361.128C510.846 360.637 511.497 360.36 512.177 360.359H650.383C651.063 360.36 651.714 360.637 652.194 361.128C652.674 361.62 652.944 362.286 652.944 362.981V362.981C652.944 363.675 652.674 364.34 652.194 364.831C651.714 365.322 651.063 365.597 650.383 365.597Z" fill="#D0D6DE"/>
<path d="M654.95 379.285H512.633C511.835 379.284 511.07 379.007 510.506 378.516C509.942 378.024 509.626 377.358 509.626 376.664V376.664C509.626 375.969 509.943 375.304 510.507 374.813C511.07 374.322 511.835 374.047 512.633 374.047H654.95C655.745 374.044 656.509 374.316 657.075 374.803C657.641 375.29 657.962 375.952 657.968 376.644C657.97 376.991 657.895 377.334 657.744 377.655C657.594 377.975 657.372 378.267 657.091 378.512C656.81 378.758 656.477 378.953 656.109 379.085C655.742 379.218 655.348 379.286 654.95 379.285Z" fill="#D0D6DE"/>
<path d="M623.295 424.362H525.212C524.888 424.362 524.568 424.294 524.269 424.162C523.971 424.031 523.699 423.837 523.471 423.594C523.243 423.35 523.062 423.061 522.938 422.743C522.815 422.425 522.752 422.084 522.752 421.74V421.74C522.752 421.046 523.011 420.381 523.473 419.89C523.934 419.399 524.559 419.124 525.212 419.124H623.295C623.948 419.124 624.574 419.399 625.036 419.89C625.498 420.38 625.758 421.046 625.759 421.74C625.759 422.436 625.499 423.103 625.037 423.594C624.575 424.086 623.949 424.362 623.295 424.362Z" fill="#D0D6DE"/>
<path d="M653.486 438.05H512.233C511.539 438.049 510.873 437.772 510.382 437.28C509.892 436.789 509.616 436.123 509.616 435.428V435.428C509.616 434.734 509.892 434.069 510.383 433.578C510.873 433.087 511.539 432.811 512.233 432.811H653.486C654.18 432.811 654.845 433.087 655.336 433.578C655.827 434.069 656.103 434.734 656.103 435.428C656.103 436.123 655.827 436.789 655.337 437.28C654.846 437.772 654.18 438.049 653.486 438.05Z" fill="#D0D6DE"/>
<path d="M636.098 451.734H512.243C511.549 451.734 510.883 451.458 510.392 450.967C509.902 450.476 509.626 449.811 509.626 449.117V449.117C509.626 448.423 509.902 447.757 510.392 447.266C510.883 446.775 511.549 446.5 512.243 446.5H636.098C636.792 446.5 637.458 446.775 637.948 447.266C638.439 447.757 638.715 448.423 638.715 449.117V449.117C638.715 449.811 638.439 450.476 637.948 450.967C637.458 451.458 636.792 451.734 636.098 451.734V451.734Z" fill="#D0D6DE"/>
<path d="M624.545 496.834H525.242C524.582 496.834 523.949 496.558 523.482 496.068C523.015 495.577 522.752 494.911 522.752 494.217C522.752 493.523 523.015 492.858 523.482 492.367C523.949 491.876 524.582 491.6 525.242 491.6H624.545C625.206 491.6 625.84 491.876 626.307 492.367C626.775 492.857 627.039 493.523 627.04 494.217C627.039 494.912 626.775 495.577 626.307 496.068C625.84 496.558 625.206 496.834 624.545 496.834Z" fill="#D0D6DE"/>
<path d="M653.486 510.498H512.233C511.539 510.498 510.873 510.222 510.383 509.732C509.892 509.241 509.616 508.575 509.616 507.881V507.881C509.616 507.538 509.684 507.197 509.815 506.88C509.947 506.562 510.14 506.274 510.383 506.031C510.626 505.788 510.914 505.595 511.232 505.464C511.549 505.332 511.889 505.264 512.233 505.264H653.486C653.829 505.264 654.17 505.332 654.487 505.464C654.805 505.595 655.093 505.788 655.336 506.031C655.579 506.274 655.772 506.562 655.903 506.88C656.035 507.197 656.103 507.538 656.103 507.881V507.881C656.103 508.575 655.827 509.241 655.336 509.732C654.845 510.222 654.18 510.498 653.486 510.498Z" fill="#D0D6DE"/>
<path d="M636.098 518.948H512.233C510.788 518.948 509.616 520.119 509.616 521.564V521.569C509.616 523.014 510.788 524.186 512.233 524.186H636.098C637.543 524.186 638.715 523.014 638.715 521.569V521.564C638.715 520.119 637.543 518.948 636.098 518.948Z" fill="#D0D6DE"/>
<path d="M484.026 390.523H445.154C443.046 390.521 441.025 389.682 439.534 388.192C438.044 386.701 437.205 384.68 437.202 382.572V343.699C437.205 341.591 438.044 339.57 439.534 338.08C441.025 336.589 443.046 335.75 445.154 335.748H484.026C486.135 335.75 488.156 336.589 489.646 338.08C491.137 339.57 491.976 341.591 491.978 343.699V382.572C491.976 384.68 491.137 386.701 489.646 388.192C488.156 389.682 486.135 390.521 484.026 390.523V390.523ZM445.154 338.157C443.685 338.159 442.276 338.743 441.237 339.782C440.198 340.821 439.613 342.23 439.612 343.699V382.572C439.613 384.041 440.198 385.45 441.237 386.489C442.276 387.528 443.685 388.113 445.154 388.114H484.026C485.496 388.113 486.905 387.528 487.944 386.489C488.983 385.45 489.567 384.041 489.569 382.572V343.699C489.567 342.23 488.983 340.821 487.944 339.782C486.905 338.743 485.496 338.159 484.026 338.157H445.154Z" fill="#D0D6DE"/>
<path d="M441.265 358.678L455.664 378.437C457.014 380.292 459.558 380.943 461.342 379.169L487.848 352.822C491.154 349.541 486.04 344.427 482.739 347.714L456.233 374.056L461.91 374.789L447.51 355.03C446.349 353.439 444.383 352.697 442.566 353.733C440.999 354.625 440.122 357.107 441.269 358.678H441.265Z" fill="#59956F"/>
<path d="M484.024 463.06H445.152C443.044 463.056 441.024 462.217 439.534 460.727C438.043 459.237 437.204 457.216 437.2 455.108V416.236C437.203 414.128 438.041 412.107 439.532 410.616C441.023 409.126 443.044 408.287 445.152 408.284H484.024C486.132 408.287 488.154 409.126 489.644 410.616C491.135 412.107 491.974 414.128 491.976 416.236V455.108C491.974 457.217 491.135 459.238 489.644 460.728C488.154 462.219 486.132 463.058 484.024 463.06ZM445.142 410.68C443.673 410.681 442.264 411.265 441.225 412.304C440.186 413.343 439.602 414.752 439.6 416.222V455.094C439.602 456.563 440.186 457.972 441.225 459.011C442.264 460.051 443.673 460.635 445.142 460.636H484.024C485.494 460.635 486.903 460.051 487.942 459.011C488.981 457.972 489.565 456.563 489.566 455.094V416.236C489.568 415.507 489.425 414.785 489.148 414.112C488.87 413.438 488.462 412.825 487.947 412.309C487.432 411.793 486.821 411.384 486.148 411.104C485.475 410.824 484.753 410.68 484.024 410.68H445.142Z" fill="#D0D6DE"/>
<path d="M441.826 419.701L477.652 453.311L482.722 458.062C486.096 461.243 491.233 456.135 487.831 452.954L452.004 419.354L446.939 414.597C443.566 411.417 438.423 416.525 441.826 419.711V419.701Z" fill="#E94270"/>
<path d="M482.722 414.588C470.78 425.798 458.845 437.001 446.915 448.198L441.85 452.954C438.448 456.14 443.571 461.248 446.963 458.063L482.79 424.453L487.855 419.701C491.257 416.511 486.139 411.407 482.747 414.588H482.722Z" fill="#E94270"/>
<path d="M484.026 535.541H445.154C443.046 535.539 441.025 534.7 439.534 533.209C438.044 531.719 437.205 529.697 437.202 527.589V488.717C437.205 486.609 438.044 484.588 439.534 483.097C441.025 481.606 443.046 480.768 445.154 480.765H484.026C486.135 480.768 488.156 481.606 489.646 483.097C491.137 484.588 491.976 486.609 491.978 488.717V527.589C491.976 529.697 491.137 531.719 489.646 533.209C488.156 534.7 486.135 535.539 484.026 535.541ZM445.154 483.175C443.685 483.176 442.276 483.76 441.237 484.8C440.198 485.839 439.613 487.248 439.612 488.717V527.589C439.613 529.059 440.198 530.468 441.237 531.507C442.276 532.546 443.685 533.13 445.154 533.131H484.026C485.496 533.13 486.905 532.546 487.944 531.507C488.983 530.468 489.567 529.059 489.569 527.589V488.717C489.567 487.248 488.983 485.839 487.944 484.8C486.905 483.76 485.496 483.176 484.026 483.175H445.154Z" fill="#D0D6DE"/>
<path d="M441.828 491.536L477.655 525.146L482.724 529.902C486.098 533.083 491.235 527.975 487.833 524.789L452.006 491.204L446.941 486.452C443.568 483.271 438.426 488.38 441.828 491.56V491.536Z" fill="#E94270"/>
<path d="M482.725 486.428L446.918 520.038L441.852 524.789C438.45 527.98 443.573 533.083 446.966 529.903L482.792 496.293L487.857 491.536C491.26 488.346 486.142 483.243 482.749 486.428H482.725Z" fill="#E94270"/>
<path d="M679.235 183.694C678.787 182.436 676.618 175.925 676.941 175.8L671.948 177.728C672.223 179.138 672.669 180.509 673.278 181.81C673.847 183.101 674.507 184.321 675.028 185.665C676.415 184.985 677.837 184.378 679.288 183.848C679.274 183.805 679.259 183.757 679.235 183.694Z" fill="#D59051"/>
<path d="M671.9 148.629C670.867 145.069 669.579 141.589 668.045 138.215C667.799 137.549 667.39 136.955 666.855 136.489C666.374 136.183 665.839 135.972 665.279 135.868L652.002 132.552C647.635 131.463 643.24 130.369 638.749 130.041C635.949 129.839 627.751 128.962 626.7 132.369C626.349 133.525 626.744 134.778 627.322 135.839C629.433 139.694 633.717 141.766 637.857 143.227C644.817 145.682 652.106 147.081 659.481 147.376C663.385 158.248 666.324 169.448 669.693 180.523L678.368 178.166C678.368 178.166 675.857 164.822 675.529 163.429C674.421 158.427 673.332 153.477 671.9 148.629Z" fill="#0A2D4E"/>
<path d="M688.137 189.549C688.377 189.602 688.426 187.448 688.426 187.274C688.46 186.593 688.328 185.914 688.043 185.295C687.758 184.676 687.327 184.135 686.787 183.718C685.768 183.041 684.619 182.585 683.414 182.378C680.132 181.641 676.773 181.544 673.433 181.342C673.187 181.299 672.934 181.334 672.71 181.442C672.485 181.55 672.3 181.726 672.18 181.944C671.563 182.995 671.293 184.436 671.081 185.568C671.062 185.703 684.72 188.788 688.137 189.549Z" fill="#D43670"/>
<path d="M646.195 84.3451L646.156 84.3788C645.872 84.6102 645.428 84.6102 645.192 84.8945C645.048 85.1216 644.978 85.3874 644.99 85.656C644.979 85.9012 644.925 86.1425 644.831 86.3692C644.724 86.5873 644.547 86.7638 644.329 86.871C644.112 86.9783 643.864 87.0103 643.626 86.962C642.449 86.8089 641.307 86.4518 640.253 85.9065C639.46 85.5337 638.711 85.0764 638.016 84.5427C635.183 82.4608 632.715 79.1355 632.204 75.5837C631.486 70.35 636.007 66.0753 640.879 65.2945C641.453 65.2022 642.033 65.1554 642.614 65.1548C646.749 65.1548 652.089 67.0247 650.947 72.1475C650.469 74.0667 649.769 75.9235 648.86 77.6801C648.664 78.0179 648.545 78.3953 648.514 78.7846C648.482 79.174 648.538 79.5656 648.677 79.9307C648.874 80.3162 649.236 80.6536 649.236 81.0921C649.219 81.3087 649.129 81.5132 648.981 81.6724C648.833 81.8316 648.636 81.9362 648.421 81.9692C648.18 82.0126 647.939 81.9692 647.684 82.0078C647.573 82.0139 647.466 82.0469 647.371 82.104C647.276 82.1611 647.196 82.2406 647.139 82.3355C647.014 82.562 647.053 82.8752 646.932 83.1258C646.877 83.2428 646.797 83.3464 646.698 83.4296C646.599 83.5128 646.483 83.5736 646.359 83.6078C646.4 83.734 646.407 83.8692 646.378 83.999C646.349 84.1288 646.286 84.2484 646.195 84.3451V84.3451Z" fill="#D59051"/>
<path d="M653.014 183.087C653.409 181.81 655.573 175.299 655.905 175.376L650.749 173.93C650.122 175.222 649.658 176.587 649.366 177.993C649.048 179.366 648.845 180.74 648.464 182.113C649.985 182.398 651.489 182.763 652.97 183.207L653.014 183.087Z" fill="#D59051"/>
<path d="M656.213 148.894C655.197 151.387 654.369 153.953 653.736 156.571C651.862 163.554 648.127 177.52 648.127 177.52L655.919 179.848C657.847 174.45 660.146 169.183 662.435 163.944C663.235 162.103 664.016 160.253 664.806 158.407C666.213 155.101 667.64 151.805 669.235 148.595C671.254 144.542 672.45 141.106 672.127 136.484C671.934 133.593 670.869 131.414 667.91 130.836C664.744 130.224 661.542 129.814 658.324 129.607C656.204 129.467 654.078 129.409 651.953 129.356L636.874 128.961L629.163 128.764C627.5 128.72 625.307 128.132 623.693 128.446C622.97 131.169 622.469 134.503 623.356 137.246C625.765 144.682 632.512 148.234 640.054 147.973C644.517 147.819 648.854 146.446 652.965 144.706C654.527 144.041 656.112 143.313 657.785 143.197C658.141 145.034 656.936 147.246 656.213 148.894Z" fill="#0A2D4E"/>
<path d="M659.568 193.988C659.775 194.128 660.604 192.138 660.671 191.978C660.952 191.357 661.078 190.678 661.039 189.997C661.001 189.317 660.799 188.656 660.45 188.07C659.747 187.069 658.847 186.222 657.804 185.583C655.023 183.699 651.929 182.379 648.898 180.966C648.684 180.837 648.436 180.778 648.187 180.797C647.938 180.816 647.701 180.912 647.51 181.072C646.57 181.926 645.777 182.929 645.163 184.041C645.091 184.157 656.666 192.041 659.568 193.988Z" fill="#D43670"/>
<path d="M639.409 89.6218C639.394 89.7111 639.361 89.7964 639.313 89.8724C639.246 89.9451 639.155 89.9913 639.057 90.0025C637.091 90.4845 635.12 90.1616 633.207 89.7616C633.849 87.0339 634.54 84.3206 635.279 81.6218C635.292 81.5393 635.329 81.4623 635.385 81.4001C635.42 81.3752 635.461 81.3587 635.503 81.352C635.546 81.3453 635.589 81.3486 635.631 81.3616C636.619 81.5254 637.602 81.7086 638.58 81.9013C639.409 82.0604 640.247 82.1375 641.076 82.3254C640.7 83.5736 640.464 84.7833 640.194 86.0604C639.944 87.2523 639.682 88.4395 639.409 89.6218Z" fill="#D59051"/>
<path d="M644.532 128.576C644.532 128.807 644.565 129.058 644.575 129.275C644.599 129.756 639.052 130.06 638.392 130.079C635.867 130.081 633.344 129.938 630.835 129.65C630.324 129.602 625.12 129.072 623.703 128.426C624.349 122.402 623.486 116.928 623.582 110.846C623.655 105.805 624.18 100.725 625.939 95.9445C627.486 91.7661 630.088 87.2698 635.149 87.3661C636.058 87.3858 636.959 87.5484 637.818 87.8481C640.006 88.5902 641.245 91.583 642.344 93.4914C643.823 96.0698 645.433 98.7926 646.532 101.54C647.375 103.65 646.908 105.906 645.982 107.906C645.312 109.352 644.392 110.662 643.804 112.147C642.647 115.072 642.734 118.209 643.279 121.26C643.708 123.699 644.339 126.137 644.532 128.576Z" fill="#6094C6"/>
<path d="M636.966 79.2942C636.967 79.3983 636.954 79.5021 636.927 79.6027C636.57 81.1659 635.743 82.5821 634.556 83.6605C634.303 83.3897 634.084 83.0886 633.905 82.7641C633.626 82.3737 633.356 81.9689 633.11 81.5593C632.611 80.7369 632.18 79.8745 631.823 78.981C630.787 76.4107 630.341 73.6406 630.517 70.875C630.691 68.2726 631.356 65.4822 633.312 63.6461C637.197 59.9593 643.968 60.422 648.392 62.7545C651.144 64.2003 652.898 67.6027 651.284 70.5473C651.275 70.5714 651.261 70.5933 651.243 70.6114C651.225 70.6294 651.203 70.6431 651.179 70.6515C651.155 70.6599 651.129 70.6626 651.104 70.6596C651.079 70.6566 651.054 70.6478 651.033 70.634C649.757 70.2119 648.37 70.2702 647.134 70.7979C646.698 71.0366 646.294 71.3279 645.929 71.6653C644.965 72.4798 644.117 73.5015 643.091 74.2003C642.549 74.5515 641.982 74.8624 641.394 75.1304C641.231 75.2123 639.698 75.7472 639.698 75.8195C639.702 75.3538 639.58 74.8956 639.345 74.4935C639.11 74.0914 638.771 73.7603 638.363 73.5352C637.457 73.0292 636.729 73.6894 636.411 74.5713C635.968 75.7858 635.929 77.7713 636.715 78.8412C636.807 78.9435 636.88 79.0609 636.932 79.1882C636.948 79.2216 636.96 79.2574 636.966 79.2942V79.2942Z" fill="#0A2D4E"/>
<path d="M632.941 109.27C632.575 110.378 632.18 111.477 631.746 112.561C630.527 115.593 629.375 118.624 628.267 121.694C628.238 121.801 628.177 121.897 628.093 121.969C628.013 122.018 627.921 122.043 627.828 122.041C626.864 122.111 625.907 121.838 625.126 121.269C624.345 120.699 623.791 119.872 623.563 118.932C623.105 117.236 623.563 115.752 623.727 114.079C623.933 112.44 624.222 110.812 624.594 109.202C625.346 105.774 626.255 102.388 627.322 99.0433C627.847 97.4096 628.435 95.7325 629.611 94.4843C630.787 93.2361 632.71 92.5229 634.286 93.2361C636.541 94.2578 636.695 96.9421 636.213 99.0192C635.852 100.663 635.148 102.238 634.642 103.838C634.069 105.675 633.529 107.491 632.941 109.27Z" fill="#D59051"/>
<path d="M633.616 115.728C636.562 115.941 639.484 116.412 642.349 117.135C644.437 117.66 646.49 118.32 648.493 119.111C649.905 119.67 652.233 120.157 652.349 122.003C652.39 122.36 652.32 122.721 652.148 123.036C651.975 123.351 651.708 123.605 651.385 123.762C651.084 123.856 650.77 123.904 650.455 123.901C647.727 124.003 644.864 124.2 642.156 123.935C639.264 123.656 636.373 123.352 633.515 122.971C632.355 122.823 631.197 122.663 630.04 122.489C628.594 122.268 626.98 122.268 625.669 121.492C625.009 121.101 625.125 119.8 625.153 119.082C625.14 118.172 625.47 117.291 626.079 116.615C626.99 115.709 628.406 115.593 629.693 115.583C630.98 115.574 632.305 115.636 633.616 115.728Z" fill="#D59051"/>
<path d="M624.195 73.8773C624.374 72.8904 624.645 71.9224 625.004 70.9858C625.542 69.507 626.608 68.2796 627.997 67.54C628.945 67.1576 629.95 66.9361 630.971 66.8846C631.734 66.8435 632.487 66.6925 633.207 66.4364C635.004 65.6894 635.385 63.3617 634.59 61.7232C633.795 60.0846 632.05 58.8798 630.412 58.1376C628.822 57.4557 627.119 57.0812 625.39 57.034C621.8 56.8798 619.125 58.5858 618.127 62.1135C617.139 65.5304 617.602 69.2653 617.409 72.7786C617.241 75.8051 616.653 78.8942 615 81.4532C614.486 82.1413 614.045 82.881 613.684 83.6605C613.623 83.749 613.587 83.8526 613.58 83.9601C613.573 84.0676 613.595 84.1749 613.645 84.2705C613.695 84.3662 613.769 84.4465 613.861 84.5029C613.953 84.5593 614.058 84.5896 614.166 84.5906C615.489 84.8523 616.861 84.6639 618.065 84.0556C619.262 83.4461 620.326 82.6059 621.197 81.5834C621.658 81.0786 622.068 80.5298 622.421 79.9448C623.152 78.5634 623.641 77.0671 623.867 75.5207C623.987 74.9761 624.084 74.4267 624.195 73.8773Z" fill="#0A2D4E"/>
<path d="M674.397 128.862L650.647 126.571L650.377 129.373L674.127 131.664L674.397 128.862Z" fill="#0A2D4E"/>
<path d="M674.244 131.591L683.467 109.586L680.871 108.498L671.648 130.503L674.244 131.591Z" fill="#0A2D4E"/>
<path d="M659.929 120.73C659.53 120.573 659.117 120.453 658.696 120.374L655.693 119.747C654.691 119.54 653.631 119.333 652.657 119.646C652.184 119.822 651.736 120.056 651.322 120.345L649.168 121.723C649.138 122.077 649.193 122.432 649.329 122.76C649.465 123.088 649.677 123.379 649.949 123.607C650.496 124.059 651.113 124.419 651.775 124.672C652.229 124.892 652.699 125.074 653.182 125.217C655.462 125.829 657.823 124.701 659.843 123.482C660.007 124.263 660.17 125.048 660.325 125.834C660.431 126.35 660.985 127.535 661.679 126.798C661.785 126.641 661.856 126.464 661.885 126.277C661.915 126.091 661.904 125.9 661.852 125.718C661.741 124.904 661.635 124.089 661.525 123.275C661.484 122.76 661.36 122.256 661.158 121.781C660.892 121.292 660.454 120.918 659.929 120.73V120.73Z" fill="#D59051"/>
<path d="M855.336 211.106C855.336 211.564 855.2 212.011 854.946 212.391C854.692 212.772 854.331 213.068 853.908 213.243C853.485 213.418 853.02 213.464 852.571 213.375C852.123 213.286 851.711 213.065 851.387 212.742C851.064 212.418 850.843 212.006 850.754 211.557C850.665 211.109 850.71 210.644 850.886 210.221C851.061 209.798 851.357 209.437 851.738 209.183C852.118 208.929 852.565 208.793 853.023 208.793C853.327 208.793 853.627 208.853 853.908 208.969C854.189 209.085 854.444 209.256 854.659 209.47C854.873 209.685 855.044 209.94 855.16 210.221C855.276 210.502 855.336 210.802 855.336 211.106V211.106Z" fill="white"/>
<path d="M866.382 211.106C866.382 211.564 866.246 212.011 865.992 212.391C865.738 212.772 865.376 213.068 864.954 213.243C864.531 213.418 864.066 213.464 863.617 213.375C863.168 213.286 862.756 213.065 862.433 212.742C862.109 212.418 861.889 212.006 861.8 211.557C861.71 211.109 861.756 210.644 861.931 210.221C862.106 209.798 862.403 209.437 862.783 209.183C863.164 208.929 863.611 208.793 864.068 208.793C864.682 208.793 865.27 209.037 865.704 209.47C866.138 209.904 866.382 210.493 866.382 211.106V211.106Z" fill="white"/>
<path d="M877.423 211.106C877.423 211.564 877.287 212.011 877.033 212.391C876.779 212.772 876.417 213.068 875.995 213.243C875.572 213.418 875.107 213.464 874.658 213.375C874.209 213.286 873.797 213.065 873.474 212.742C873.15 212.418 872.93 212.006 872.841 211.557C872.751 211.109 872.797 210.644 872.972 210.221C873.147 209.798 873.444 209.437 873.824 209.183C874.205 208.929 874.652 208.793 875.109 208.793C875.413 208.793 875.714 208.853 875.995 208.969C876.275 209.085 876.53 209.256 876.745 209.47C876.96 209.685 877.13 209.94 877.247 210.221C877.363 210.502 877.423 210.802 877.423 211.106V211.106Z" fill="white"/>
<path d="M344.589 317.581C342.628 314.228 337.678 312.54 332.895 318.131C328.112 312.537 323.165 314.228 321.204 317.581C316.371 325.848 332.895 335.575 332.895 335.575C332.895 335.575 349.419 325.848 344.589 317.581Z" fill="#EDEFF2"/>
<path d="M326.305 261.447H292.425C289.231 261.447 286.642 264.036 286.642 267.23V285.987C286.642 289.181 289.231 291.77 292.425 291.77H326.305C329.498 291.77 332.088 289.181 332.088 285.987V267.23C332.088 264.036 329.498 261.447 326.305 261.447Z" fill="#EDEFF2"/>
<path d="M309.365 283.514C308.335 283.517 307.345 283.12 306.603 282.406L286.705 263.129L288.049 261.746L307.948 281.023C308.333 281.383 308.84 281.583 309.367 281.583C309.894 281.583 310.402 281.383 310.786 281.023L330.685 261.746L332.025 263.129L312.131 282.406C311.388 283.121 310.396 283.518 309.365 283.514V283.514Z" fill="white"/>
<path d="M303.121 277.495L286.794 290.037L287.969 291.565L304.296 279.024L303.121 277.495Z" fill="white"/>
<path d="M315.618 277.495L314.444 279.023L330.771 291.565L331.945 290.036L315.618 277.495Z" fill="white"/>
<path d="M302.175 337.396H261.245C258.051 337.396 255.462 339.985 255.462 343.179V368.075C255.462 371.269 258.051 373.859 261.245 373.859H302.175C305.369 373.859 307.959 371.269 307.959 368.075V343.179C307.959 339.985 305.369 337.396 302.175 337.396Z" fill="#D0D6DE"/>
<path d="M281.708 385.381L290.913 372.967H272.503L281.708 385.381Z" fill="#D0D6DE"/>
<path d="M284.162 350.09C282.672 347.54 278.908 346.234 275.275 350.509C271.636 346.258 267.872 347.54 266.383 350.09C262.711 356.355 275.275 363.771 275.275 363.771C275.275 363.771 287.834 356.374 284.162 350.09Z" fill="white"/>
<path d="M295.52 360.316H293.25V354.099V353.078L293.284 351.96C292.908 352.336 292.647 352.586 292.498 352.702L291.264 353.695L290.17 352.326L293.63 349.569H295.496L295.52 360.316Z" fill="white"/>
<path d="M767.606 168.194H726.676C723.482 168.194 720.893 170.783 720.893 173.977V198.873C720.893 202.067 723.482 204.656 726.676 204.656H767.606C770.8 204.656 773.389 202.067 773.389 198.873V173.977C773.389 170.783 770.8 168.194 767.606 168.194Z" fill="#EDEFF2"/>
<path d="M747.139 216.179L756.343 203.76H737.934L747.139 216.179Z" fill="#EDEFF2"/>
<path d="M760.95 191.114H758.681V184.897L758.705 183.876L758.738 182.758C758.363 183.134 758.102 183.379 757.953 183.5L756.719 184.493L755.625 183.124L759.085 180.367H760.95V191.114Z" fill="white"/>
<path d="M744.117 180.006H736.666C735.142 180.012 733.683 180.62 732.604 181.696C731.526 182.773 730.916 184.231 730.907 185.755C730.91 186.688 731.139 187.605 731.574 188.43C732.009 189.255 732.636 189.963 733.403 190.493V194.546L737.548 191.514H744.117C745.646 191.514 747.114 190.908 748.198 189.829C749.281 188.75 749.893 187.285 749.9 185.755V185.755C749.891 184.227 749.278 182.765 748.194 181.688C747.111 180.61 745.645 180.006 744.117 180.006V180.006Z" fill="white"/>
<path d="M658.353 511.736C660.165 514.556 662.859 518.32 661.437 521.553C660.474 523.708 658.743 525.409 657.187 527.153C654.994 529.574 652.488 531.692 649.736 533.452C648.662 534.136 643.139 537.211 643.317 533.804C643.391 533.323 643.603 532.874 643.929 532.512C647.235 528.069 650.729 523.773 654.411 519.626C653.394 517.804 652.001 516.455 650.821 514.806C649.573 513.005 648.212 511.286 646.744 509.659C644.94 507.601 643.781 505.059 643.409 502.349C643.23 501.086 643.25 499.674 643.943 498.556C646.059 495.153 649.524 499.163 650.999 501.062C653.477 504.232 655.773 507.54 657.876 510.97C658.025 511.221 658.184 511.476 658.353 511.736Z" fill="#F4A49B"/>
<path d="M650.512 613.192C650.474 611.809 650.122 604.705 649.76 604.705H655.312C655.579 606.169 655.663 607.659 655.563 609.144C655.5 610.589 655.322 612.035 655.317 613.481C653.714 613.344 652.106 613.293 650.498 613.327C650.517 613.317 650.512 613.264 650.512 613.192Z" fill="#F4A49B"/>
<path d="M640.845 585.115C639.462 582.257 638.127 579.375 636.989 576.416L636.931 576.267C632.845 565.713 630.29 554.648 627.958 543.597C627.293 540.431 626.671 537.992 627.703 534.85C628.405 532.464 629.928 530.402 632.001 529.029C635.349 526.878 639.388 526.078 643.302 526.792C650.165 528.151 649.452 536.031 649.601 541.294C649.751 546.741 649.624 552.192 649.221 557.626C649.028 560.27 648.779 562.913 648.473 565.554C648.233 567.631 647.587 570.016 648.17 572.074C650.18 579.236 654.286 585.987 655.577 593.433C656.541 598.908 657.254 608.942 657.302 608.942L648.584 608.85C648.425 608.855 641.982 587.467 640.845 585.115Z" fill="#0A2D4E"/>
<path d="M638.315 616.396C638.059 616.396 638.522 614.208 638.56 614.03C638.687 613.335 638.979 612.681 639.413 612.124C639.847 611.567 640.409 611.123 641.052 610.83C642.24 610.387 643.507 610.197 644.772 610.271C648.252 610.3 651.669 610.994 655.086 611.577C655.345 611.592 655.593 611.687 655.795 611.849C655.997 612.012 656.143 612.233 656.213 612.483C656.584 613.688 656.522 615.206 656.464 616.396C656.459 616.541 641.939 616.445 638.315 616.396Z" fill="#0A2D4E"/>
<path d="M649.428 514.06C649.361 514.113 645.573 509.134 645.255 508.676C644.074 507.048 642.975 505.221 642.667 503.178C642.45 502.005 642.45 500.803 642.667 499.631C643.014 498.031 644.059 496.498 645.611 495.992C647.014 495.51 648.599 495.992 649.799 496.84C650.956 497.765 651.936 498.891 652.691 500.166C653.635 501.605 654.512 503.086 655.322 504.609C656.131 506.002 656.838 507.451 657.438 508.946C654.426 509.958 651.891 512.031 649.428 514.06Z" fill="#E6AF3A"/>
<path d="M627.789 613.308C627.751 611.973 627.414 605.115 627.062 605.115H632.421C632.679 606.527 632.76 607.967 632.662 609.399C632.599 610.806 632.43 612.185 632.426 613.606C630.886 613.475 629.34 613.425 627.794 613.457C627.794 613.428 627.789 613.365 627.789 613.308Z" fill="#F4A49B"/>
<path d="M616.026 616.402C615.775 616.402 616.218 614.291 616.257 614.117C616.38 613.446 616.663 612.815 617.083 612.277C617.502 611.739 618.046 611.311 618.667 611.028C619.814 610.604 621.036 610.42 622.257 610.488C625.63 610.517 628.907 611.187 632.209 611.751C632.458 611.765 632.697 611.857 632.891 612.013C633.085 612.169 633.226 612.383 633.293 612.623C633.581 613.861 633.663 615.137 633.534 616.402C633.524 616.536 619.52 616.445 616.026 616.402Z" fill="#0A2D4E"/>
<path d="M624.662 584.619C624.575 583.905 624.484 583.173 624.392 582.469C622.262 566.084 622.72 548.869 626.922 532.831C627.712 529.804 628.806 531.313 630.84 531.978C632.98 532.681 635.312 532.797 637.5 533.582C640.204 534.546 643.544 535.028 644.141 538.204C644.671 541.028 643.071 543.852 642.392 546.503C641.582 549.664 641.91 553.101 640.946 556.142C639.905 559.438 638.079 562.484 637.317 565.872C635.626 573.375 635.949 581.043 636.132 588.638C636.175 590.257 635.505 608.397 635.505 608.397L626.522 608.031C626.522 608.031 626.43 605.664 626.402 604.811C626.344 603.298 626.233 601.78 626.127 600.267C625.79 595.046 625.301 589.83 624.662 584.619Z" fill="#0A2D4E"/>
<path d="M576.503 391.51C566.792 390.934 557.127 393.25 548.732 398.166C540.336 403.082 533.587 410.377 529.338 419.128C525.088 427.88 523.529 437.695 524.858 447.332C526.187 456.97 530.344 465.997 536.803 473.272C543.262 480.548 551.733 485.744 561.145 488.205C570.558 490.666 580.488 490.28 589.682 487.097C598.875 483.914 606.918 478.076 612.794 470.322C618.669 462.568 622.113 453.246 622.691 443.534C623.464 430.511 619.033 417.713 610.371 407.957C601.709 398.201 589.527 392.285 576.503 391.51V391.51ZM615.096 443.105C614.607 451.316 611.695 459.197 606.728 465.753C601.76 472.308 594.96 477.243 587.187 479.934C579.414 482.625 571.019 482.95 563.061 480.869C555.104 478.787 547.942 474.393 542.482 468.241C537.022 462.09 533.509 454.457 532.387 446.309C531.265 438.161 532.585 429.863 536.179 422.465C539.773 415.066 545.48 408.9 552.579 404.746C559.678 400.591 567.849 398.635 576.06 399.125C587.068 399.781 597.365 404.784 604.685 413.031C612.006 421.279 615.751 432.097 615.096 443.105V443.105Z" fill="#0A2D4E"/>
<path d="M640.827 520.549L644.947 516.892L605.159 472.078L601.04 475.735L640.827 520.549Z" fill="#0A2D4E"/>
<g opacity="0.56">
<path d="M576.069 398.667C581.082 398.972 585.998 400.187 590.575 402.252C592.975 409.889 593.116 418.057 590.979 425.771C588.843 433.486 584.521 440.418 578.535 445.733C572.549 451.047 565.153 454.517 557.24 455.724C549.327 456.931 541.233 455.824 533.934 452.537C531.914 446.115 531.486 439.299 532.688 432.676C533.889 426.052 536.684 419.82 540.831 414.518C544.979 409.216 550.354 405.002 556.493 402.241C562.632 399.479 569.35 398.252 576.069 398.667V398.667Z" fill="white"/>
</g>
<path d="M658.835 544.629L666.731 537.619L626.944 492.805L619.048 499.815L658.835 544.629Z" fill="#0A2D4E"/>
<path d="M632.508 483.891C632.505 483.907 632.505 483.923 632.508 483.939C632.604 484.296 632.961 484.551 632.989 484.903C632.971 485.165 632.874 485.416 632.71 485.621C632.574 485.827 632.476 486.055 632.421 486.296C632.379 486.535 632.418 486.781 632.532 486.995C632.647 487.209 632.83 487.379 633.052 487.476C634.104 488.04 635.245 488.417 636.426 488.59C637.288 488.749 638.166 488.816 639.042 488.787C642.556 488.749 646.517 487.505 648.989 484.903C652.623 481.047 651.447 474.956 647.939 471.476C647.525 471.069 647.08 470.693 646.609 470.354C643.235 467.944 637.823 466.339 635.761 471.168C635.031 473.006 634.517 474.923 634.228 476.879C634.189 477.266 634.065 477.64 633.864 477.973C633.663 478.306 633.391 478.591 633.067 478.807C632.676 479.009 632.185 479.067 631.929 479.423C631.818 479.61 631.772 479.828 631.8 480.043C631.828 480.258 631.928 480.458 632.083 480.609C632.252 480.787 632.474 480.913 632.657 481.091C632.745 481.159 632.814 481.248 632.857 481.35C632.901 481.452 632.918 481.564 632.907 481.674C632.879 481.934 632.667 482.156 632.618 482.435C632.59 482.564 632.591 482.698 632.621 482.826C632.651 482.954 632.71 483.075 632.792 483.178C632.683 483.259 632.599 483.368 632.549 483.494C632.499 483.62 632.484 483.757 632.508 483.891V483.891Z" fill="#F4A49B"/>
<path d="M636.594 493.028C636.585 493.123 636.602 493.217 636.642 493.303C636.709 493.398 636.806 493.467 636.917 493.501C639.211 494.436 641.736 494.571 644.209 494.609C644.209 491.718 644.125 488.816 643.958 485.906C643.962 485.816 643.936 485.728 643.886 485.655C643.847 485.62 643.801 485.593 643.751 485.577C643.701 485.56 643.649 485.554 643.597 485.559C642.329 485.496 641.066 485.453 639.799 485.419C638.729 485.419 637.679 485.274 636.604 485.274C636.681 486.598 636.691 487.925 636.633 489.25C636.604 490.508 636.594 491.771 636.594 493.028Z" fill="#F4A49B"/>
<path d="M625.047 540.855C629.378 541.176 633.715 541.367 638.059 541.428C638.994 541.428 650.16 541.462 650.16 541.327C650.16 538.18 649.982 531.688 649.982 528.503C649.982 523.12 650.3 517.746 650.464 512.373C650.599 507.525 651.182 502.045 648.82 497.597C646.512 493.26 640.517 490.927 635.808 492.093C631.221 493.235 628.502 497.684 627.37 501.997C625.095 510.648 625.095 520.681 625.071 529.558C625.062 532.194 625.057 538.219 625.047 540.855Z" fill="#FFC73C"/>
<path d="M613.346 500.96C613.443 499.529 613.615 498.104 613.862 496.691C614.219 494.763 614.633 492.835 614.826 490.869C614.928 490.333 614.889 489.781 614.715 489.264C614.575 488.958 614.345 488.702 614.056 488.53C613.766 488.357 613.431 488.277 613.096 488.3C612.77 488.346 612.458 488.465 612.185 488.647C611.911 488.83 611.682 489.072 611.515 489.356C611.186 489.925 610.946 490.541 610.802 491.182C609.838 494.597 608.885 498.014 607.944 501.433C607.423 503.312 606.893 505.221 606.879 507.168C606.845 510.392 611.626 509.303 613.558 508.893C619.655 507.601 625.717 505.939 631.39 503.278C632.17 502.903 633.086 502.527 633.587 501.78C634.199 500.768 634.402 499.562 634.156 498.406C634.075 497.915 633.862 497.455 633.539 497.076C632.97 496.464 632.093 496.512 631.327 496.623C627.065 497.316 622.883 498.437 618.845 499.968C617.018 500.623 615.158 501.471 613.279 501.948L613.346 500.96Z" fill="#F4A49B"/>
<path d="M653.307 468.888C651.64 467.188 649.51 466.015 647.182 465.515C644.551 465.033 642.088 466.223 639.505 465.828C638.968 465.767 638.454 465.578 638.005 465.277C637.556 464.976 637.186 464.572 636.927 464.098C636.821 463.862 636.724 463.587 636.488 463.481C636.375 463.435 636.252 463.421 636.131 463.443C633.389 463.804 633.645 468.657 635.327 470.002C636.845 471.1 638.621 471.787 640.483 471.997C640.882 472.008 641.272 472.116 641.62 472.31C641.83 472.482 641.991 472.706 642.087 472.96C642.183 473.214 642.21 473.488 642.165 473.756C642.08 474.283 641.918 474.794 641.683 475.274C640.972 476.908 640.517 478.643 640.334 480.416C640.284 480.73 640.312 481.051 640.416 481.351C640.472 481.499 640.577 481.624 640.714 481.704C640.85 481.785 641.01 481.817 641.168 481.794C641.343 480.967 641.823 480.237 642.512 479.747C643.201 479.257 644.049 479.043 644.888 479.149C647.336 479.539 646.334 482.252 645.018 483.38C644.676 483.669 644.29 483.905 643.977 484.223C642.98 485.231 642.951 487.823 642.666 489.168C642.729 488.874 648.541 488.088 649.201 487.867C653.616 486.382 656.025 482.647 656.806 478.185C657.37 474.821 655.804 471.38 653.307 468.888Z" fill="#0A2D4E"/>
<path d="M612.994 480.792L612.893 480.836C612.57 481.027 612.302 481.299 612.117 481.626C611.623 482.356 611.155 483.101 610.715 483.862C610.505 484.181 610.355 484.536 610.272 484.908C610.035 486.282 611.891 488.007 611.235 489.949C611.206 490.036 613.472 489.771 614.349 490.079C614.524 490.119 614.704 490.134 614.884 490.123C615.004 490.002 615.108 489.866 615.192 489.718C615.746 488.361 616.38 487.038 617.091 485.756C617.255 485.514 617.37 485.241 617.429 484.954C617.487 484.667 617.489 484.372 617.433 484.084C617.24 483.404 616.59 483.12 616.132 482.638C615.672 482.118 615.173 481.635 614.638 481.192C614.417 480.998 614.152 480.859 613.866 480.79C613.579 480.72 613.28 480.721 612.994 480.792V480.792Z" fill="#F4A49B"/>
<path d="M620.58 498.253L623.341 507.727C623.341 507.727 628.97 506.474 631.64 505.438C633.52 504.706 635.616 503.771 636.99 502.248C637.568 501.605 637.967 500.821 638.145 499.975C638.324 499.128 638.276 498.25 638.006 497.428C637.737 496.54 637.248 495.733 636.585 495.082C635.923 494.431 635.107 493.957 634.214 493.703C631.322 492.942 628.43 494.86 625.934 496.016C625.544 496.175 620.556 498.185 620.58 498.253Z" fill="#FFC73C"/>
<path d="M367.849 572.594C362.152 570.946 356.413 568.686 353.001 563.385C348.663 556.638 349.309 548.021 354.789 539.057L360.432 542.638C357.362 547.655 353.531 554.204 357.54 560.469C360.109 564.464 364.981 566.146 369.343 567.414L367.849 572.594Z" fill="#D5AA69"/>
<path d="M384.268 511.293C386.099 505.943 385.029 499.756 379.155 497.799C376.994 497.028 374.685 496.768 372.408 497.038C370.962 497.24 369.747 498.03 368.379 498.445C367.102 498.83 365.969 498.98 365.039 500.088C363.632 501.799 363.656 504.584 363.685 506.681C363.762 511.809 365.882 517.804 371.251 519.539C377.309 521.51 382.359 516.859 384.268 511.293Z" fill="#0A2D4E"/>
<path d="M381.536 572.594L380.027 567.394C384.365 566.127 389.261 564.445 391.83 560.45C395.859 554.185 392.182 547.52 389.112 542.503L394.596 539.057C400.08 548.021 400.716 556.662 396.389 563.385C392.972 568.686 387.232 570.946 381.536 572.594Z" fill="#D5AA69"/>
<path d="M397.998 540.286C395.511 542.334 391.367 544.402 388.495 545.857C389.039 545.582 388.456 538.3 388.244 537.549C387.483 534.874 385.926 532.247 385.352 529.553C384.471 525.553 392.061 532.165 392.827 533.004C394.845 535.208 396.582 537.654 397.998 540.286V540.286Z" fill="#6094C6"/>
<path d="M351.391 540.286C353.883 542.334 358.138 544.108 361.001 545.587C360.456 545.308 360.938 538.324 361.15 537.573C361.907 534.898 363.468 532.271 364.042 529.577C364.919 525.578 357.328 532.19 356.562 533.028C354.547 535.226 352.811 537.664 351.391 540.286V540.286Z" fill="#6094C6"/>
<path d="M375.169 574.961C371.059 574.85 367.006 574.392 363.261 572.758C361.565 572.021 359.849 570.903 359.266 569.149C359.051 568.389 358.958 567.6 358.991 566.811C358.991 563.876 359.16 561.028 358.991 558.137C358.842 555.115 358.837 552.088 358.798 549.067C358.697 543.887 358.972 538.707 359.622 533.568C359.734 532.741 359.949 531.931 360.263 531.158C360.562 530.376 361.007 529.658 361.574 529.043C362.14 528.488 362.769 528.003 363.449 527.597C365.757 526.122 368.981 524.831 370.196 522.228C370.972 520.561 371.16 518.681 371.237 516.845C373.483 516.686 375.736 516.67 377.984 516.797C377.752 518.436 377.848 520.106 378.268 521.708C378.356 522.185 378.547 522.637 378.827 523.033C379.896 524.207 381.2 525.143 382.654 525.78C384.042 526.455 385.362 527.262 386.596 528.19C387.685 528.99 388.446 530.373 389.044 531.563C390.716 534.937 390.798 538.831 390.846 542.59C390.895 546.349 390.967 550.122 391.049 553.876C391.16 559.317 391.266 564.681 391.242 570.117C391.281 570.769 391.199 571.423 391.001 572.045C390.703 572.738 390.198 573.323 389.555 573.717C387.666 574.946 385.261 574.932 383.01 574.932C380.379 574.961 377.772 575.028 375.169 574.961Z" fill="#6094C6"/>
<path d="M380.735 525.452C380.875 525.298 381.005 525.129 381.135 524.97C380.269 524.449 379.487 523.799 378.817 523.043C378.537 522.647 378.346 522.194 378.258 521.717C377.838 520.115 377.741 518.446 377.974 516.806C375.726 516.679 373.473 516.696 371.227 516.855C371.14 518.691 370.962 520.57 370.186 522.238C369.532 523.48 368.555 524.523 367.357 525.255C367.887 525.852 368.515 526.355 369.212 526.744L369.261 526.773C372.803 528.652 377.873 528.59 380.735 525.452Z" fill="#D5AA69"/>
<path d="M364.996 508.132C364.943 510.956 365.478 513.751 366.471 515.703C367.84 518.416 370.418 520.642 373.435 521.004C374.927 521.154 376.431 520.864 377.76 520.17C379.089 519.475 380.186 518.406 380.914 517.095C383.806 512.103 384.071 503.997 379.671 499.717C372.669 492.937 365.141 500.368 364.996 508.132Z" fill="#D5AA69"/>
<path d="M390.982 571.679H359.117C358.611 571.679 358.124 571.49 357.75 571.151C357.376 570.812 357.142 570.345 357.092 569.842L354.856 546.975C354.829 546.693 354.861 546.408 354.95 546.138C355.039 545.869 355.183 545.621 355.374 545.411C355.565 545.201 355.797 545.033 356.057 544.918C356.316 544.803 356.597 544.744 356.88 544.744H393.218C393.501 544.744 393.782 544.803 394.041 544.918C394.301 545.033 394.533 545.201 394.724 545.411C394.915 545.621 395.059 545.869 395.148 546.138C395.237 546.408 395.269 546.693 395.242 546.975L393.006 569.842C392.956 570.345 392.722 570.812 392.348 571.151C391.974 571.49 391.487 571.679 390.982 571.679V571.679Z" fill="#D0D6DE"/>
<path d="M357.526 578.787C357.632 577.438 356.702 575.818 355.555 575.447C354.408 575.076 353.025 575.177 351.849 575.091C349.66 574.865 347.452 574.916 345.276 575.245C343.348 575.592 340.939 576.209 341.001 578.96C341.045 580.854 342.375 582.054 343.849 582.623C345.965 583.433 348.23 583.336 350.408 582.97C352.664 582.589 357.247 582.262 357.526 578.787Z" fill="#0A2D4E"/>
<path d="M385.733 579.086C386.62 578.869 387.507 578.642 388.384 578.401C391.378 577.591 394.328 576.626 397.222 575.51C399.887 574.479 402.668 573.452 404.933 571.433C408.528 568.247 409.54 560.691 404.519 558.652C401.627 557.467 398.475 558.093 395.598 559.134C392.451 560.267 389.405 561.732 386.316 563.062C382.34 564.777 378.365 566.493 374.413 568.31C369.516 570.575 364.591 572.787 359.526 574.454C359.42 574.477 359.325 574.535 359.256 574.618C359.199 574.723 359.17 574.841 359.174 574.961C359.145 575.51 359.579 581.794 359.844 581.799C363.459 581.799 367.044 581.601 370.654 581.385C375.738 581.059 380.783 580.29 385.733 579.086V579.086Z" fill="#D43670"/>
<path d="M359.859 581.765C359.859 581.722 357.69 581.765 357.536 581.765C356.138 581.765 353.955 581.707 353.256 579.905C352.818 578.772 353.107 576.763 353.873 575.924C354.64 575.086 355.685 575.187 356.582 574.96C357.478 574.734 358.379 574.738 359.271 574.57C359.271 574.584 359.859 581.755 359.859 581.765Z" fill="#D5AA69"/>
<path d="M391.463 578.787C391.357 577.438 392.292 575.818 393.439 575.447C394.586 575.076 395.969 575.177 397.145 575.091C399.334 574.865 401.543 574.916 403.719 575.245C405.646 575.592 408.056 576.209 407.993 578.96C407.945 580.854 406.615 582.054 405.14 582.623C403.03 583.433 400.76 583.336 398.581 582.97C396.307 582.589 391.714 582.262 391.463 578.787Z" fill="#0A2D4E"/>
<path d="M363.241 579.086C362.355 578.871 361.47 578.642 360.586 578.401C357.592 577.589 354.642 576.624 351.747 575.51C349.082 574.479 346.307 573.452 344.037 571.433C340.446 568.247 339.429 560.691 344.456 558.652C347.347 557.467 350.499 558.093 353.372 559.134C356.523 560.267 359.564 561.732 362.653 563.062C366.634 564.777 370.61 566.493 374.557 568.31C379.453 570.575 384.384 572.787 389.449 574.454C389.553 574.478 389.646 574.536 389.714 574.618C389.773 574.722 389.802 574.841 389.796 574.961C389.825 575.51 389.396 581.794 389.126 581.799C385.511 581.799 381.926 581.601 378.316 581.385C373.234 581.059 368.19 580.29 363.241 579.086V579.086Z" fill="#E94270"/>
<path d="M389.111 581.765C389.111 581.722 391.285 581.765 391.434 581.765C392.832 581.765 395.015 581.707 395.714 579.905C396.152 578.772 395.863 576.763 395.097 575.924C394.331 575.086 393.29 575.187 392.388 574.96C391.487 574.734 390.591 574.738 389.699 574.57C389.699 574.584 389.111 581.755 389.111 581.765Z" fill="#D5AA69"/>
<path d="M384.167 495.105C383.654 494.63 383.066 494.244 382.427 493.963C380.639 493.187 378.803 493.775 376.923 493.539C375.044 493.303 373.029 492.43 371.309 493.255C370.2 493.785 369.535 494.387 368.2 494.247C367.339 494.071 366.463 493.976 365.584 493.963C360.764 494.334 360.591 502.035 364.856 503.235C366.335 503.65 367.974 503.235 369.318 502.469C369.696 502.219 370.106 502.021 370.538 501.881C371.362 501.679 372.205 502.016 373.044 502.151C374.774 502.43 376.644 501.712 378.345 502.151C381.429 502.917 382.976 508.416 383.521 510.994C384.369 508.782 385.405 506.623 386.008 504.339C386.61 502.055 386.745 499.582 385.815 497.423C385.436 496.542 384.874 495.752 384.167 495.105Z" fill="#0A2D4E"/>
<path d="M769.655 431.973C769.617 430.638 769.279 423.78 768.932 423.78H774.287C774.544 425.193 774.626 426.632 774.532 428.064C774.465 429.472 774.296 430.85 774.291 432.272C772.751 432.142 771.205 432.092 769.66 432.122C769.66 432.093 769.66 432.04 769.655 431.973Z" fill="#F4A49B"/>
<path d="M763.669 405.423C762.975 401.9 762.262 398.377 761.366 394.903C760.467 391.285 759.261 387.751 757.761 384.339C755.165 378.78 752.936 373.057 751.086 367.206C750.214 364.315 749.298 363.144 749.159 360.137C749.019 357.129 749.086 354.411 751.207 352.57C754.09 350.036 757.828 348.693 761.665 348.811C768.412 349.12 768.86 356.739 769.761 361.737C770.781 367.477 771.484 373.269 771.867 379.086C772.06 381.978 772.187 384.887 772.248 387.814C772.325 391.365 773.308 394.464 774.026 397.934C774.504 400.586 774.783 403.27 774.86 405.963C775.245 413.192 776.002 427.621 776.002 427.621L767.891 428.281C767.11 422.594 765.963 416.97 764.821 411.351C764.436 409.365 764.069 407.394 763.669 405.423Z" fill="#0A2D4E"/>
<path d="M757.891 435.066C757.641 435.066 758.089 432.955 758.123 432.782C758.247 432.112 758.531 431.481 758.951 430.944C759.37 430.406 759.912 429.977 760.532 429.693C761.677 429.268 762.898 429.084 764.118 429.153C767.491 429.182 770.773 429.852 774.07 430.416C774.319 430.43 774.557 430.521 774.752 430.678C774.946 430.834 775.087 431.048 775.154 431.288C775.515 432.449 775.453 433.919 775.4 435.066C775.39 435.206 761.385 435.11 757.891 435.066Z" fill="#0A2D4E"/>
<path d="M750.142 431.973C750.103 430.638 749.766 423.78 749.419 423.78H754.773C755.031 425.193 755.112 426.632 755.014 428.064C754.952 429.472 754.783 430.85 754.778 432.272C753.238 432.142 751.692 432.092 750.147 432.122C750.147 432.093 750.147 432.04 750.142 431.973Z" fill="#F4A49B"/>
<path d="M755.776 428.522C753.159 428.151 750.171 428.117 747.669 427.332C748.301 423.365 747.935 418.922 747.915 414.898C747.915 411.351 747.795 407.799 747.52 404.257C747.462 403.457 747.39 402.652 747.308 401.847C747.072 399.438 746.754 397.086 746.523 394.7C745.809 387.38 745.925 380.011 746.041 372.662C746.118 367.843 746.195 363.023 747.139 358.301C747.428 356.609 747.971 354.972 748.749 353.443C750.812 349.669 754.884 347.366 759.072 348.508C765.313 350.214 764.821 358.479 764.253 363.554C763.38 371.313 760.277 378.585 758.055 386.011C757.429 387.93 757.001 389.909 756.778 391.915C756.542 394.744 757.004 397.582 757.284 400.406C757.67 404.357 757.693 408.336 757.351 412.291C757.245 413.52 756.436 428.599 755.776 428.522Z" fill="#0A2D4E"/>
<path d="M738.378 435.066C738.128 435.066 738.576 432.955 738.609 432.782C738.734 432.111 739.018 431.481 739.437 430.943C739.857 430.405 740.399 429.977 741.019 429.693C742.166 429.268 743.388 429.085 744.61 429.153C747.983 429.182 751.265 429.852 754.561 430.416C754.81 430.43 755.049 430.521 755.243 430.678C755.438 430.834 755.579 431.048 755.646 431.288C756.007 432.449 755.944 433.919 755.891 435.066C755.877 435.206 741.872 435.11 738.378 435.066Z" fill="#0A2D4E"/>
<path d="M745.954 364.036C750.262 364.357 754.579 364.562 758.903 364.652C759.828 364.652 770.951 364.686 770.951 364.542C770.951 361.168 770.773 357.795 770.773 354.383C770.773 348.599 771.086 342.816 771.255 337.033C771.385 331.809 771.968 325.915 769.616 321.13C767.317 316.44 761.356 313.949 756.686 315.202C752.122 316.431 749.419 321.221 748.291 325.867C746.026 335.178 746.031 345.983 746.002 355.539C745.979 358.363 745.963 361.195 745.954 364.036Z" fill="#E94270"/>
<path d="M753.212 317.703L745.062 315.905C743.433 315.549 741.747 315.163 740.426 314.146C739.265 313.259 738.465 311.958 737.535 310.855C736.469 309.606 735.323 308.445 734.224 307.206C733.125 305.968 731.612 304.893 730.792 303.553C730.513 303.072 729.954 302.498 729.882 301.949C729.809 301.399 730.204 300.402 730.445 299.881C730.573 299.647 730.672 299.397 730.739 299.139C730.775 298.605 730.625 298.076 730.315 297.64C729.992 297.023 729.587 296.453 729.11 295.944C728.629 295.462 728.012 295.462 727.385 295.245C726.844 294.502 726.401 293.692 726.069 292.835C725.761 292.045 725.655 291.192 724.744 290.855C724.691 290.83 724.632 290.817 724.573 290.817C724.514 290.817 724.456 290.83 724.402 290.855C724.324 290.901 724.264 290.972 724.233 291.057C724.157 291.248 724.121 291.453 724.128 291.659C724.135 291.864 724.184 292.066 724.272 292.252C724.754 293.505 725.183 294.782 725.67 296.04C724.985 295.823 724.363 294.725 723.694 295.819C723.605 295.976 723.55 296.15 723.531 296.33C723.512 296.51 723.529 296.692 723.583 296.864C723.435 296.906 723.3 296.983 723.188 297.088C723.076 297.194 722.99 297.324 722.939 297.469C722.887 297.613 722.871 297.768 722.892 297.921C722.913 298.073 722.969 298.218 723.057 298.344C722.927 298.453 722.823 298.591 722.753 298.746C722.683 298.901 722.648 299.07 722.653 299.24C722.653 300.541 723.939 301.737 724.812 302.556C725.506 303.206 726.359 303.602 726.783 304.445C727.367 305.595 727.964 306.739 728.571 307.876C729.805 310.199 731.09 312.496 732.426 314.768C733.679 316.917 734.759 319.38 737.086 320.599C737.866 320.968 738.688 321.236 739.535 321.399L752.826 324.57" fill="#F4A49B"/>
<path d="M752.422 305.8C752.419 305.817 752.419 305.835 752.422 305.853C752.494 306.209 752.836 306.489 752.836 306.855C752.799 307.115 752.685 307.359 752.508 307.554C752.362 307.752 752.252 307.974 752.181 308.209C752.126 308.446 752.151 308.694 752.253 308.914C752.354 309.135 752.525 309.316 752.74 309.429C753.749 310.055 754.86 310.502 756.022 310.749C756.872 310.964 757.743 311.084 758.619 311.106C762.128 311.289 766.161 310.291 768.788 307.848C772.643 304.253 771.858 298.079 768.576 294.388C768.188 293.955 767.767 293.552 767.318 293.183C764.118 290.561 758.798 288.629 756.441 293.318C755.599 295.108 754.965 296.988 754.552 298.923C754.493 299.309 754.347 299.677 754.126 299.999C753.905 300.321 753.614 300.589 753.275 300.783C752.875 300.961 752.383 300.99 752.104 301.327C751.98 301.506 751.92 301.721 751.934 301.938C751.948 302.155 752.035 302.361 752.181 302.523C752.34 302.711 752.552 302.85 752.73 303.005C752.811 303.078 752.873 303.171 752.91 303.274C752.947 303.378 752.958 303.489 752.942 303.597C752.894 303.858 752.667 304.079 752.605 304.344C752.569 304.471 752.562 304.604 752.584 304.734C752.605 304.864 752.655 304.988 752.73 305.096C752.618 305.173 752.53 305.28 752.475 305.404C752.421 305.528 752.402 305.665 752.422 305.8Z" fill="#F4A49B"/>
<path d="M759.448 316.922C758.002 315.39 756.002 314.995 753.713 314.966C750.339 314.903 747.004 314.677 743.674 314.286C743.525 314.286 743.337 314.286 743.265 314.402C743.072 314.763 743.11 315.814 743.048 316.272C742.927 317.11 742.927 317.968 742.86 318.816C742.709 320.677 742.469 322.529 742.142 324.373C746.549 324.482 750.876 325.58 754.802 327.587C755 327.729 755.224 327.83 755.462 327.884C755.699 327.938 755.945 327.943 756.185 327.901C756.532 327.731 756.813 327.452 756.985 327.105C757.64 326.069 758.296 325.028 758.913 323.958C759.395 323.115 760.122 322.633 760.595 321.819C760.862 321.286 760.994 320.695 760.978 320.099C760.962 319.503 760.799 318.92 760.503 318.402C760.223 317.861 759.867 317.363 759.448 316.922V316.922Z" fill="#E94270"/>
<path d="M773.515 328.609C775.513 332.603 777.231 336.73 778.658 340.961C779.246 342.705 780.426 345.573 779.024 347.226C778.569 347.723 777.953 348.044 777.284 348.132C776.922 348.206 776.548 348.206 776.185 348.132C775.221 347.9 774.552 347.004 774.007 346.156C771.511 342.238 770.248 338.031 768.359 333.823" fill="#F4A49B"/>
<path d="M756.739 315.997C756.853 316.316 757.036 316.606 757.275 316.846C757.514 317.086 757.804 317.27 758.122 317.385C758.603 317.558 759.119 317.612 759.626 317.544C760.229 317.481 760.816 317.318 761.366 317.062C761.693 316.924 761.984 316.711 762.214 316.44C762.826 315.631 762.542 314.112 762.518 313.158C762.482 311.828 762.436 310.495 762.378 309.158C762.38 309.074 762.36 308.991 762.32 308.917C762.292 308.885 762.257 308.86 762.218 308.844C762.178 308.828 762.136 308.822 762.093 308.826C761.101 308.768 760.108 308.723 759.115 308.691C758.277 308.691 757.448 308.551 756.604 308.551C756.691 309.847 756.648 311.081 756.604 312.406C756.609 313.582 756.359 314.941 756.739 315.997Z" fill="#F4A49B"/>
<path d="M771.983 322.498C773.766 325.399 775.375 328.404 776.802 331.496C773.53 332.387 770.214 333.303 767.27 334.99C767.232 335.018 767.189 335.037 767.143 335.046C767.097 335.055 767.05 335.054 767.005 335.043C766.954 335.008 766.914 334.959 766.889 334.903C765.689 332.556 764.518 330.223 763.419 327.838C762.32 325.452 761.222 322.941 761.593 320.363C761.678 319.582 761.983 318.841 762.474 318.228C762.894 317.795 763.412 317.47 763.984 317.279C764.556 317.087 765.165 317.036 765.761 317.129C768.86 317.51 770.455 320.074 771.983 322.498Z" fill="#E94270"/>
<path d="M733.708 336.489L753.954 335.13L755.26 348.349L735.144 348.893L733.708 336.489Z" fill="#0A2D4E"/>
<path d="M754.976 336.619C754.277 336.816 754.012 337.722 754.185 338.436C754.359 339.149 754.73 339.79 754.841 340.508C754.952 341.226 754.595 342.122 753.877 342.204C753.562 342.211 753.251 342.145 752.966 342.011C751.872 341.607 749.703 340.98 748.6 341.65C748.452 341.729 748.338 341.857 748.276 342.013C748.215 342.168 748.21 342.34 748.262 342.498C748.407 342.802 748.831 342.951 748.865 343.284C748.865 343.496 748.735 343.679 748.687 343.886C748.552 344.46 749.221 344.898 749.366 345.472C749.4 345.63 749.421 345.791 749.429 345.954C749.56 346.512 749.832 347.028 750.219 347.452C750.384 347.693 750.585 347.906 750.817 348.084C751.915 348.85 753.747 348.676 755 348.426C756.084 348.204 757.024 347.587 758.089 347.308C758.913 347.091 759.819 347.274 760.677 347.308C761 347.308 761.429 347.284 761.501 346.966C761.518 346.885 761.518 346.801 761.501 346.72C761.433 346.238 761.361 345.717 761.294 345.216C761.271 344.952 761.201 344.694 761.086 344.455C760.834 344.099 760.494 343.815 760.099 343.631C758.508 342.643 757.559 341.125 756.595 339.573C756.474 339.395 754.85 336.652 754.976 336.619Z" fill="#F4A49B"/>
<path d="M774.73 293.544C772.851 290.834 770.087 288.862 766.913 287.968C763.848 287.004 759.501 286.85 757.52 289.896C757.087 290.492 756.892 291.23 756.976 291.963C757.542 291.883 758.119 291.943 758.656 292.139C759.193 292.335 759.674 292.66 760.055 293.086C761.429 294.643 760.45 296.358 760.894 298.108C761.053 298.801 761.347 299.457 761.761 300.035C762.185 300.594 762.725 300.715 763.207 301.134C763.371 300.842 763.635 300.62 763.952 300.51C764.268 300.4 764.613 300.409 764.923 300.537C765.23 300.682 765.496 300.901 765.698 301.175C765.899 301.448 766.03 301.767 766.079 302.103C766.561 304.778 763.785 305.096 762.33 306.609C761.745 307.22 761.369 308 761.254 308.838C761.139 309.675 761.291 310.528 761.689 311.274C761.061 311.954 760.599 312.771 760.341 313.661C760.082 314.55 760.035 315.488 760.201 316.399C760.367 317.31 760.744 318.17 761.3 318.911C761.856 319.651 762.576 320.253 763.405 320.667C762.017 322.18 761.901 324.599 762.826 326.45C763.752 328.3 765.559 329.568 767.501 330.243C770.442 331.195 773.627 331.058 776.475 329.857C777.948 329.323 779.243 328.388 780.214 327.158C781.79 324.965 781.602 321.766 780.017 319.582C779.885 319.463 779.798 319.304 779.768 319.129C779.738 318.954 779.768 318.774 779.853 318.619C780.586 316.575 780.669 314.356 780.091 312.263C779.513 310.171 778.302 308.309 776.624 306.932C777.81 302.435 777.342 297.399 774.73 293.544Z" fill="#0A2D4E"/>
<path d="M773.559 342.257H773.915C775.079 342.215 776.24 342.393 777.337 342.783C779.164 343.558 780.267 345.578 779.795 347.284C779.715 347.602 779.567 347.9 779.361 348.156C778.696 348.937 777.434 349.062 776.33 349.091C771.025 349.129 765.731 348.615 760.532 347.558C758.947 347.264 756.552 347.024 755.462 345.756C754.542 344.686 755.183 343.978 756.344 343.587C759.08 342.736 761.933 342.33 764.797 342.383C767.713 342.397 770.629 342.224 773.559 342.257Z" fill="#F4A49B"/>
</g>
<defs>
<clipPath id="clip0_3364_2541">
<rect width="1181" height="644" fill="white"/>
</clipPath>
</defs>
</svg>
